<?xml version="1.0" encoding="UTF-8"?><svg id="uuid-48399372-9279-4ba9-bd56-2c42ab9491f0" xmlns="http://www.w3.org/2000/svg" xmlns:xlink="http://www.w3.org/1999/xlink" viewBox="0 0 184.29 59.15"><defs><linearGradient id="uuid-ead88bc0-0563-40c8-929b-efb0cc5878e8" x1="-162.7" y1="682.6" x2="-162.36" y2="682.6" gradientTransform="translate(6620.14 27292.06) scale(39.95 -39.95)" gradientUnits="userSpaceOnUse"><stop offset="0" stop-color="#040f0f"/><stop offset="1" stop-color="#62696a"/></linearGradient><linearGradient id="uuid-ca5fca8a-73e1-461a-b861-76a0c9c83e99" x1="-163.32" y1="683.39" x2="-162.99" y2="683.39" gradientTransform="translate(6001.69 24628.69) scale(36.01 -36.01)" gradientUnits="userSpaceOnUse"><stop offset="0" stop-color="#3b3b3c"/><stop offset=".19" stop-color="#404041"/><stop offset=".43" stop-color="#4e4e50"/><stop offset=".69" stop-color="#666768"/><stop offset=".97" stop-color="#87898b"/><stop offset="1" stop-color="#8c8e90"/></linearGradient></defs><g id="uuid-3108117e-4507-4c3f-9f48-861f3d95a516"><g id="uuid-054532e5-9a20-4e0e-9c7b-e6bca9d9e09e"><path d="M3.3,59.03c-1.29,0-2.53-.41-3.18-1.04l-.12-.12.61-.68.13.13c.5.5,1.53.84,2.57.84s2.15-.34,2.15-1.3-.72-1.1-2.1-1.35l-.36-.07c-1.33-.24-2.62-.6-2.62-2.06s1.6-2.18,3.19-2.18c.93,0,1.85.23,2.51.62l.17.1-.59.71-.13-.08c-.53-.32-1.27-.51-2.03-.51-1.06,0-2.14.4-2.14,1.3,0,.82.82,1.04,1.88,1.24l.26.05c1.46.27,2.97.55,2.97,2.21,0,1.5-1.6,2.17-3.18,2.17Z" fill="#231f20"/><path d="M13.66,59.04c-1.74,0-2.91-1.16-2.91-2.89s1.17-2.89,2.91-2.89h0c.88,0,1.63.28,2.14.81.5.52.77,1.23.77,2.08,0,1.75-1.14,2.89-2.91,2.89ZM13.66,54.09c-1.21,0-1.96.79-1.96,2.06s.75,2.06,1.96,2.06,1.96-.77,1.96-2.06-.73-2.06-1.96-2.06Z" fill="#231f20"/><path d="M21.56,58.9v-4.7h-.96v-.8h.96c.03-.86.33-1.5.89-1.95.49-.4,1.16-.61,1.94-.61h.29v.8h-.18c-.62,0-1.1.16-1.45.46-.35.3-.51.69-.54,1.3h1.73v.8h-1.73v4.7h-.95Z" fill="#231f20"/><path d="M31.42,58.97c-.74-.05-1.32-.27-1.73-.66-.44-.41-.66-.99-.66-1.71v-2.39h-1.06v-.8h1.06v-1.51h.95v1.51h1.59v.8h-1.59v2.39c0,.46.12.83.37,1.09.25.27.61.43,1.09.48l.16.02v.8h-.19Z" fill="#231f20"/><polygon points="41.06 58.9 39.74 54.99 38.41 58.9 37.52 58.9 35.49 53.4 36.47 53.4 37.96 57.5 39.33 53.4 40.15 53.4 41.52 57.5 43 53.4 43.99 53.4 41.95 58.9 41.06 58.9" fill="#231f20"/><path d="M49.86,59.03c-1.07,0-2.22-.58-2.22-1.86,0-1.14.95-1.88,2.42-1.88.59,0,1.19.12,1.68.34v-.3c0-.85-.83-1.29-1.65-1.29-.51,0-1.11.16-1.6.43l-.17.09-.3-.69.14-.08c.62-.34,1.36-.53,2.03-.53,1.24,0,2.5.72,2.5,2.09v3.55h-.89l-.02-.54c-.65.55-1.39.67-1.93.67ZM50.16,56.03c-.38,0-1.6.08-1.6,1.11,0,.76.73,1.1,1.45,1.1s1.31-.26,1.74-.76v-1.06c-.43-.25-1.01-.39-1.59-.39Z" fill="#231f20"/><path d="M57.45,58.9v-5.5h.89l.02.63c.5-.49,1.14-.77,1.81-.77h.18s.07.17.07.17v.66h-.32c-.68,0-1.29.35-1.71.98l.03,3.82h-.95Z" fill="#231f20"/><path d="M67.11,59.03c-1.75,0-2.89-1.13-2.89-2.89s1.11-2.88,2.82-2.88,2.68.93,2.68,2.54c0,.19-.02.46-.06.71l-.03.14h-4.44c.17.98.87,1.57,1.91,1.58h0c.64,0,1.18-.13,1.65-.39l.13-.07.47.58-.16.1c-.57.38-1.3.58-2.09.58ZM68.81,55.93c0-.09.01-.17.01-.24,0-1.11-.56-1.63-1.75-1.63-1.12,0-1.84.71-1.89,1.87h3.63Z" fill="#231f20"/><path d="M81.77,59.03c-.8,0-3.23,0-3.23-2.26,0-.89.38-1.54,1.13-1.91l.6-.25-.56-.58c-.27-.3-.4-.67-.4-1.15,0-1.74,1.74-1.74,2.31-1.74s2.3,0,2.3,1.74c0,.72-.28,1.21-.87,1.5l-1.25.52,2.21,2.28c.07-.16.1-.35.1-.58,0-.41-.11-.71-.33-.91l-.15-.14.61-.45.11.1c.41.38.62.91.62,1.57,0,.44-.09.82-.27,1.13l.42.44.09.25.06.22h-.96l-.28-.29c-.48.35-1.2.51-2.25.51ZM80.17,55.58c-.46.22-.68.59-.68,1.18,0,1.01.64,1.43,2.21,1.43.82,0,1.35-.11,1.68-.35l-2.48-2.57-.74.31ZM81.63,51.98c-.98,0-1.34.25-1.34.92,0,.29.06.48.18.6l.72.74,1.39-.58c.16-.08.38-.24.38-.77,0-.68-.35-.92-1.33-.92Z" fill="#231f20"/><path d="M100.27,59l-.83-1.99h-3.55l-.83,1.99h-1.03l3.2-7.57h.89l3.2,7.57h-1.03ZM99.09,56.15l-1.44-3.43-1.44,3.43h2.87Z" fill="#231f20"/><path d="M107.7,59.15c-1.19,0-2.4-.72-2.4-2.09v-3.56h.95v3.45c0,.94.82,1.36,1.59,1.36.57,0,.95-.19,1.67-.82v-4h.95v5.5h-.89l-.02-.6c-.62.5-1.13.75-1.86.75Z" fill="#231f20"/><path d="M118.01,59.07c-.74-.05-1.32-.27-1.73-.66-.44-.41-.66-.99-.66-1.71v-2.39h-1.06v-.8h1.06v-1.51h.95v1.51h1.59v.8h-1.59v2.39c0,.46.12.83.37,1.09.25.27.61.43,1.09.48l.16.02v.8h-.19Z" fill="#231f20"/><path d="M125.23,59.14c-1.74,0-2.91-1.16-2.91-2.89s1.17-2.89,2.91-2.89h0c.88,0,1.63.28,2.14.81.5.52.77,1.23.77,2.08,0,1.75-1.14,2.89-2.91,2.89ZM125.23,54.19c-1.21,0-1.96.79-1.96,2.06s.75,2.06,1.96,2.06,1.96-.77,1.96-2.06-.73-2.06-1.96-2.06Z" fill="#231f20"/><path d="M140.32,59v-3.45c0-.94-.73-1.36-1.41-1.36-.51,0-.86.11-1.53.73.06.18.09.37.09.58v3.5h-.95v-3.45c0-.94-.73-1.36-1.41-1.36-.49,0-.81.17-1.45.8v4.02h-.95v-5.5h.89l.02.57c.55-.47,1-.71,1.66-.71.73,0,1.4.32,1.8.84.72-.62,1.24-.84,1.98-.84,1.11,0,2.23.72,2.23,2.09v3.56h-.95Z" fill="#231f20"/><path d="M147.91,59.13c-1.07,0-2.22-.58-2.22-1.86,0-1.14.95-1.88,2.42-1.88.59,0,1.19.12,1.68.34v-.3c0-.85-.83-1.29-1.65-1.29-.51,0-1.11.16-1.6.43l-.17.09-.3-.69.14-.08c.62-.34,1.36-.53,2.03-.53,1.24,0,2.5.72,2.5,2.09v3.55h-.89l-.02-.54c-.65.55-1.39.67-1.93.67ZM148.2,56.13c-.38,0-1.6.08-1.6,1.11,0,.76.73,1.1,1.45,1.1s1.31-.26,1.74-.76v-1.06c-.43-.25-1.01-.39-1.59-.39Z" fill="#231f20"/><path d="M158.29,59.07c-.74-.05-1.32-.27-1.73-.66-.44-.41-.66-.99-.66-1.71v-2.39h-1.06v-.8h1.06v-1.51h.95v1.51h1.59v.8h-1.59v2.39c0,.46.12.83.37,1.09.25.27.61.43,1.09.48l.16.02v.8h-.19Z" fill="#231f20"/><path d="M163.18,59v-5.5h.95v5.5h-.95ZM163.66,52.63c-.3,0-.54-.23-.54-.51s.24-.51.54-.51.54.23.54.51-.24.51-.54.51Z" fill="#231f20"/><path d="M171.63,59.14c-1.74,0-2.91-1.16-2.91-2.89s1.17-2.89,2.91-2.89h0c.88,0,1.63.28,2.14.81.5.52.77,1.23.77,2.08,0,1.75-1.14,2.89-2.91,2.89ZM171.63,54.19c-1.21,0-1.96.79-1.96,2.06s.75,2.06,1.96,2.06,1.96-.77,1.96-2.06-.73-2.06-1.96-2.06Z" fill="#231f20"/><path d="M183.32,59v-3.45c0-.94-.82-1.36-1.59-1.36-.57,0-.95.19-1.67.82v4h-.95v-5.5h.89l.02.6c.62-.49,1.12-.74,1.86-.74,1.19,0,2.4.72,2.4,2.09v3.56h-.95Z" fill="#231f20"/></g><g id="uuid-5846e78e-6fa8-4d01-8e4a-98f527040bff"><path d="M184.29,31.8c0,.82-.2,1.78-.56,2.93-.4,1.12-1.02,2.11-1.88,2.96-.86.86-1.94,1.28-3.26,1.28-1.38,0-2.4-.26-3.02-.76-.66-.49-1.38-1.41-2.1-2.76l-10.39-16.84c-.33-.59-.59-.95-.79-1.12-.2-.16-.43-.26-.73-.26-.16,0-.36.1-.56.29-.2.2-.3.46-.3.82v19.66h-6.05V15.17c0-.39.1-.95.26-1.61.2-.69.53-1.41.99-2.17.43-.72,1.02-1.35,1.77-1.88.72-.53,1.64-.79,2.66-.79,1.31,0,2.37.3,3.12.89.76.63,1.35,1.25,1.81,1.94l10.42,16.57c.36.59.63.98.86,1.15.23.13.49.2.79.2.36,0,.59-.1.69-.39.07-.3.1-.69.1-1.22V9.35h6.15v22.46Z" fill="#231f20" fill-rule="evenodd"/><path d="M42.68,32.37h16.54c1.45,0,2.53-.23,3.19-.69.66-.46,1.02-1.18,1.02-2.17s-.36-1.74-1.02-2.2c-.69-.46-1.74-.69-3.19-.69h-6.77c-4.01,0-6.74-.63-8.16-1.84-1.41-1.25-2.1-3.42-2.1-6.58s.86-5.53,2.53-7.04c1.71-1.51,4.37-2.24,7.96-2.24h16.83v6.18h-13.84c-2.27,0-3.72.2-4.41.59-.69.4-1.02,1.09-1.02,2.1,0,.92.3,1.58.89,2.01.59.46,1.55.66,2.83.66h7.1c3.22,0,5.72.75,7.4,2.27,1.71,1.51,2.57,3.72,2.57,6.58,0,2.7-.76,4.93-2.27,6.68-1.51,1.71-3.45,2.56-5.85,2.56h-20.22v-6.18Z" fill="#231f20" fill-rule="evenodd"/><rect x="31.4" y="18.98" width="8.25" height="19.56" fill="#231f20"/><rect x="31.4" y="8.92" width="8.25" height="7.37" fill="#231f20"/><polygon points="81.41 8.92 81.41 23.16 93.97 8.92 103.9 8.92 90.19 23.42 103.9 38.55 93.38 38.55 81.41 24.18 81.41 38.55 73.55 38.55 73.55 8.92 81.41 8.92" fill="#231f20" fill-rule="evenodd"/><path d="M.53,32.37h16.51c1.48,0,2.53-.23,3.22-.69.66-.46.99-1.18.99-2.17s-.33-1.74-1.02-2.2c-.69-.46-1.74-.69-3.19-.69h-6.77c-4.01,0-6.71-.63-8.12-1.84C.72,23.52,0,21.35,0,18.2s.85-5.53,2.56-7.04c1.71-1.51,4.34-2.24,7.93-2.24h16.83v6.18h-13.84c-2.23,0-3.72.2-4.41.59-.66.4-1.02,1.09-1.02,2.1,0,.92.33,1.58.92,2.01.59.46,1.51.66,2.79.66h7.1c3.26,0,5.72.75,7.43,2.27,1.71,1.51,2.57,3.72,2.57,6.58,0,2.7-.76,4.93-2.27,6.68-1.51,1.71-3.45,2.56-5.85,2.56H.53v-6.18Z" fill="#231f20" fill-rule="evenodd"/></g><g id="uuid-3389e848-8e52-4a5f-8765-ebe817447b2d"><path id="uuid-3c549d99-e72f-4657-aba4-5595d1ee1658" d="M140.92,10.53l.82-1.39,1.94-3.29c-2.19-1.3-4.58-2.21-7.05-2.68-1.14-.22-2.31-.34-3.47-.37l.19-2.74c-2.54-.18-5.08.08-7.5.76-.32.09-.64.19-.95.3l-.33-.98c-1.38.47-2.71,1.07-3.96,1.78l-.63-1.08c-2.2,1.28-4.16,2.93-5.77,4.85-2.88,3.45-4.67,7.79-4.86,12.53l-3.65-.07-1.43-.03c-.03,1.17.04,2.36.21,3.54.29,1.96.86,3.92,1.74,5.8l-1.3.62-1.29.62c.5,1.06,1.09,2.09,1.78,3.07,1.17,1.67,2.61,3.19,4.29,4.51l-.59.66-.95,1.06c.87.79,1.81,1.51,2.82,2.15.29.18.59.36.89.53l-.32.56c1.01.6,2.08,1.11,3.2,1.53,2.32.88,4.84,1.36,7.48,1.36,3.58,0,6.94-.89,9.87-2.44l2.48,4.39c.14-.07.27-.14.41-.21,2.95-1.64,5.33-3.92,7.06-6.58l1.21.81c.09-.12.18-.25.27-.37,1.48-2.17,2.47-4.53,3.01-6.96l2.58.51c.03-.15.07-.3.1-.45.31-1.5.44-3,.41-4.48h1.08c0-.16.01-.31.01-.47,0-7.3-3.91-13.71-9.8-17.38Z" fill="#fff"/><path d="M136.97,9.76c-.52-.23-1.05-.43-1.6-.62h0c-.4-.14-.8-.26-1.2-.38-.03,0-.07-.02-.1-.03-.42-.12-.85-.23-1.28-.32-.07-.02-.15-.04-.22-.05-.46-.09-.92-.17-1.38-.24-1.34-.19-2.67-.25-3.98-.19l-1.41-4.17-1.22-3.62c-2.42.81-4.66,2.03-6.63,3.59-3.73,2.96-6.46,7.15-7.48,12.11-.13.65-.23,1.29-.3,1.93-.29,2.63-.06,5.22.6,7.68.62,2.27,1.61,4.42,2.93,6.37l-4.58,5.13-.95,1.07c.87.79,1.81,1.51,2.82,2.15,2.09,1.33,4.46,2.31,7.05,2.84,4.6.95,9.15.32,13.07-1.49,2.67-1.24,5.04-3.04,6.94-5.28,1.16-1.37,2.13-2.89,2.89-4.56l8.2,1.62c.04-.15.07-.3.1-.45,1.99-9.66-3.33-19.17-12.25-23.09Z" fill="#00a2e2" opacity=".49"/><path d="M141.1,13.71c-.39-.41-.81-.8-1.23-1.19-.31-.28-.63-.55-.96-.82-.03-.02-.05-.05-.08-.07-.34-.27-.7-.54-1.06-.79-.06-.04-.12-.09-.18-.13-.39-.26-.78-.51-1.18-.75-1.17-.69-2.37-1.26-3.6-1.71l.3-4.39.26-3.81c-2.54-.18-5.08.08-7.5.76-4.58,1.3-8.71,4.11-11.57,8.3-.37.54-.71,1.1-1.02,1.67-1.28,2.32-2.07,4.8-2.4,7.32-.3,2.34-.22,4.7.25,7.01l-6.2,2.97-1.29.62c.5,1.06,1.09,2.09,1.78,3.07,1.42,2.03,3.23,3.85,5.41,5.34,3.88,2.65,8.32,3.82,12.64,3.65,2.94-.12,5.83-.87,8.44-2.2,1.59-.82,3.08-1.85,4.42-3.1l6.94,4.65c.09-.12.18-.25.27-.37,5.55-8.15,4.3-18.98-2.43-26.03Z" fill="#00a2e2" opacity=".35"/><path d="M144.48,21.52c-.17-.54-.36-1.08-.57-1.61-.15-.39-.32-.78-.5-1.16-.02-.03-.03-.07-.04-.1-.18-.4-.38-.79-.59-1.18-.04-.07-.07-.14-.1-.2-.23-.41-.47-.81-.72-1.2-.73-1.14-1.56-2.19-2.45-3.15l2.24-3.79,1.94-3.29c-2.19-1.3-4.58-2.21-7.05-2.68-4.68-.89-9.63-.23-14.06,2.24-.58.32-1.13.67-1.66,1.03-2.18,1.5-4,3.36-5.42,5.47-1.32,1.95-2.3,4.11-2.92,6.37l-6.88-.12-1.43-.03c-.03,1.17.04,2.36.21,3.54.36,2.45,1.16,4.89,2.44,7.2,2.29,4.11,5.73,7.15,9.66,8.93,2.68,1.22,5.6,1.84,8.53,1.81,1.79-.01,3.58-.27,5.34-.79l4.12,7.27c.14-.07.27-.14.41-.21,8.62-4.8,12.35-15.03,9.5-24.35Z" fill="#00a2e2" opacity=".35"/><path d="M134.06,7.76c-.55-.12-1.12-.21-1.69-.29h0c-.42-.06-.83-.1-1.26-.13-.04,0-.07,0-.11,0-.44-.03-.88-.05-1.32-.06-.08,0-.15,0-.23,0-.47,0-.93.02-1.39.05-1.35.09-2.67.3-3.94.61l-2.22-3.8-1.93-3.3c-2.2,1.28-4.16,2.93-5.77,4.85-3.05,3.65-4.88,8.3-4.88,13.37,0,.66.04,1.31.1,1.95.25,2.64.99,5.13,2.14,7.4,1.06,2.1,2.47,4.01,4.15,5.65l-3.45,5.95-.72,1.24c1.01.6,2.08,1.11,3.2,1.53,2.32.88,4.84,1.36,7.48,1.36,4.7,0,9.03-1.53,12.5-4.1,2.37-1.75,4.33-4,5.73-6.57.86-1.57,1.5-3.27,1.91-5.05l8.36-.06c0-.15.01-.3.01-.46,0-9.86-7.13-18.1-16.66-20.14Z" fill="#008ccc" opacity=".7"/><path d="M127.33,34.67c-6.63,0-11.92-5.74-11.17-12.52.57-5.14,4.75-9.32,9.89-9.89,6.78-.75,12.53,4.54,12.53,11.17,0,6.21-5.03,11.24-11.24,11.24" fill="#fff"/><path d="M134.07,23.42h0c0-3.72-3.02-6.74-6.74-6.74s-6.74,3.02-6.74,6.74,3.02,6.74,6.74,6.74,6.74-3.02,6.74-6.74Z" fill="url(#uuid-ead88bc0-0563-40c8-929b-efb0cc5878e8)"/><path d="M127.34,17c-.46,0-.93.05-1.41.16-3.3.71-5.35,4.1-4.9,6.63.49,2.71,3.77,4.28,7.07,3.57,3.3-.75,5.51-3.54,4.93-6.25-.52-2.3-2.94-4.1-5.7-4.1Z" fill="url(#uuid-ca5fca8a-73e1-461a-b861-76a0c9c83e99)"/></g></g></svg>