<?xml version="1.0" encoding="UTF-8"?>
<svg id="Layer_1" data-name="Layer 1" xmlns="http://www.w3.org/2000/svg" viewBox="0 0 572.36 166.93">
  <defs>
    <style>
      .cls-1 {
        fill: #000;
      }

      .cls-1, .cls-2, .cls-3, .cls-4, .cls-5 {
        stroke-width: 0px;
      }

      .cls-2 {
        fill: #cdccd1;
      }

      .cls-3 {
        fill: #01218b;
      }

      .cls-4 {
        fill: #9faedf;
      }

      .cls-5 {
        fill: #fff;
      }
    </style>
  </defs>
  <g>
    <polygon class="cls-2" points="121.65 25.68 121.65 113.89 155.17 147.41 155.17 25.68 121.65 25.68"/>
    <polygon class="cls-4" points="111.21 103.45 111.21 25.68 77.55 25.68 77.55 69.78 111.21 103.45"/>
    <polygon class="cls-2" points="67.55 25.68 33.44 25.68 67.55 59.79 67.55 25.68"/>
    <polygon class="cls-1" points="33.44 113.89 33.44 147.41 155.17 147.41 121.65 113.89 33.44 113.89"/>
    <polygon class="cls-3" points="77.55 69.78 33.44 69.78 33.44 103.45 111.21 103.45 77.55 69.78"/>
    <polygon class="cls-1" points="33.44 25.68 33.44 59.79 67.55 59.79 33.44 25.68"/>
  </g>
  <g>
    <path class="cls-1" d="M228.55,100.88h-29.85l-4.15,14.25h-26.85l31.98-86.32h28.68l31.98,86.32h-27.54l-4.26-14.25ZM223.09,82.22l-9.39-31.03-9.29,31.03h18.69Z"/>
    <path class="cls-1" d="M267.34,28.81h34.58l13.34,52.52,13.24-52.52h34.56v86.32h-21.54V49.3l-16.59,65.83h-19.49l-16.56-65.83v65.83h-21.53V28.81Z"/>
    <path class="cls-1" d="M454.34,102.53c3.29,2.32,5.44,3.77,6.44,4.36,1.51.86,3.54,1.87,6.09,3l-7.31,14.96c-3.68-1.81-7.31-3.96-10.91-6.45-3.6-2.49-6.11-4.37-7.55-5.62-5.8,2.55-13.08,3.83-21.82,3.83-12.93,0-23.12-3.42-30.59-10.25-8.82-8.09-13.23-19.45-13.23-34.09s3.86-25.25,11.58-33.12c7.72-7.87,18.51-11.81,32.36-11.81s25.03,3.85,32.71,11.54c7.68,7.69,11.52,18.71,11.52,33.03,0,12.76-3.1,22.96-9.29,30.62ZM434.19,88.87c2.09-3.81,3.13-9.5,3.13-17.08,0-8.72-1.6-14.94-4.79-18.67-3.19-3.73-7.59-5.59-13.21-5.59-5.22,0-9.46,1.9-12.71,5.71-3.25,3.81-4.88,9.76-4.88,17.84,0,9.42,1.59,16.04,4.76,19.84,3.17,3.81,7.53,5.71,13.06,5.71,1.78,0,3.46-.18,5.05-.53-2.21-2.16-5.69-4.2-10.45-6.12l4.12-9.6c2.32.43,4.13.96,5.43,1.59,1.3.63,3.82,2.28,7.57,4.95.89.63,1.86,1.28,2.9,1.94Z"/>
    <path class="cls-1" d="M476.6,28.81h43.71c9.52,0,16.65,2.3,21.39,6.89,4.74,4.59,7.11,11.13,7.11,19.61s-2.58,15.53-7.75,20.43c-5.17,4.91-13.05,7.36-23.65,7.36h-14.4v32.03h-26.41V28.81ZM503.01,65.61h6.44c5.07,0,8.63-.89,10.68-2.68,2.05-1.79,3.08-4.07,3.08-6.86s-.89-5.01-2.67-6.89c-1.78-1.88-5.13-2.83-10.04-2.83h-7.49v19.26Z"/>
  </g>
  <g>
    <path class="cls-5" d="M187.21,144.5h-3.32l-1.32-3.43h-6.04l-1.25,3.43h-3.23l5.88-15.1h3.22l6.05,15.1ZM181.59,138.53l-2.08-5.6-2.04,5.6h4.12Z"/>
    <path class="cls-5" d="M198.65,144.5h-2.69v-1.61c-.45.63-.97,1.09-1.58,1.4-.61.31-1.22.46-1.84.46-1.26,0-2.33-.51-3.23-1.52-.9-1.01-1.34-2.43-1.34-4.24s.44-3.26,1.31-4.23c.87-.97,1.97-1.45,3.31-1.45,1.22,0,2.28.51,3.17,1.52v-5.44h2.89v15.1ZM190.92,138.8c0,1.17.16,2.01.48,2.53.47.76,1.12,1.13,1.96,1.13.67,0,1.23-.28,1.7-.85.47-.57.7-1.41.7-2.54,0-1.26-.23-2.16-.68-2.71s-1.03-.83-1.74-.83-1.26.27-1.73.82-.7,1.36-.7,2.45Z"/>
    <path class="cls-5" d="M204.32,144.5l-4.41-10.94h3.04l2.06,5.58.6,1.86c.16-.47.26-.79.3-.94.1-.31.2-.62.31-.93l2.08-5.58h2.98l-4.35,10.94h-2.61Z"/>
    <path class="cls-5" d="M215.02,136.9l-2.63-.47c.3-1.06.8-1.84,1.52-2.35.72-.51,1.79-.76,3.21-.76,1.29,0,2.25.15,2.88.46.63.31,1.08.69,1.33,1.16.26.47.39,1.33.39,2.59l-.03,3.38c0,.96.05,1.67.14,2.13.09.46.27.95.52,1.47h-2.86c-.08-.19-.17-.48-.28-.86-.05-.17-.08-.28-.1-.34-.49.48-1.02.84-1.59,1.08-.56.24-1.16.36-1.8.36-1.13,0-2.01-.31-2.66-.92-.65-.61-.97-1.38-.97-2.32,0-.62.15-1.17.44-1.65.3-.48.71-.85,1.24-1.11.53-.26,1.3-.48,2.3-.67,1.35-.25,2.29-.49,2.81-.71v-.29c0-.56-.14-.95-.41-1.19s-.79-.36-1.56-.36c-.52,0-.92.1-1.21.3-.29.2-.52.56-.7,1.07ZM218.9,139.25c-.37.12-.96.27-1.76.44-.8.17-1.33.34-1.58.5-.38.27-.57.61-.57,1.02s.15.76.45,1.05c.3.3.69.44,1.15.44.52,0,1.02-.17,1.49-.52.35-.26.58-.58.69-.96.08-.25.11-.72.11-1.41v-.58Z"/>
    <path class="cls-5" d="M234.36,144.5h-2.89v-5.58c0-1.18-.06-1.95-.19-2.29-.12-.35-.32-.62-.6-.81s-.61-.29-1-.29c-.5,0-.95.14-1.35.41-.4.27-.67.64-.82,1.09-.15.45-.22,1.29-.22,2.51v4.96h-2.89v-10.94h2.69v1.61c.95-1.24,2.16-1.85,3.61-1.85.64,0,1.22.12,1.75.34.53.23.93.52,1.2.88.27.36.46.76.57,1.22.11.45.16,1.1.16,1.95v6.8Z"/>
    <path class="cls-5" d="M246.64,136.8l-2.85.52c-.1-.57-.31-1-.65-1.29-.34-.29-.78-.43-1.32-.43-.72,0-1.3.25-1.73.75s-.64,1.33-.64,2.5c0,1.3.22,2.21.65,2.75.44.54,1.02.8,1.76.8.55,0,1-.16,1.35-.47.35-.31.6-.85.74-1.61l2.84.48c-.3,1.31-.86,2.29-1.7,2.96-.84.67-1.96,1-3.37,1-1.6,0-2.88-.5-3.83-1.51-.95-1.01-1.43-2.41-1.43-4.19s.48-3.21,1.43-4.22c.95-1.01,2.25-1.51,3.87-1.51,1.33,0,2.39.29,3.18.86.79.57,1.35,1.45,1.69,2.62Z"/>
    <path class="cls-5" d="M254.98,141.02l2.88.48c-.37,1.06-.96,1.86-1.76,2.42-.8.55-1.8.83-3,.83-1.9,0-3.31-.62-4.22-1.86-.72-1-1.08-2.25-1.08-3.77,0-1.81.47-3.23,1.42-4.26.95-1.03,2.15-1.54,3.6-1.54,1.63,0,2.91.54,3.85,1.61.94,1.08,1.39,2.72,1.35,4.94h-7.25c.02.86.25,1.53.7,2,.45.48,1,.72,1.67.72.45,0,.83-.12,1.14-.37s.54-.65.7-1.2ZM255.15,138.1c-.02-.84-.24-1.47-.65-1.91-.41-.44-.91-.65-1.5-.65-.63,0-1.15.23-1.57.69-.41.46-.61,1.09-.61,1.88h4.33Z"/>
    <path class="cls-5" d="M270.23,144.5h-2.69v-1.61c-.45.63-.97,1.09-1.58,1.4-.61.31-1.22.46-1.84.46-1.26,0-2.33-.51-3.23-1.52-.9-1.01-1.34-2.43-1.34-4.24s.44-3.26,1.31-4.23c.87-.97,1.97-1.45,3.31-1.45,1.22,0,2.28.51,3.17,1.52v-5.44h2.89v15.1ZM262.5,138.8c0,1.17.16,2.01.48,2.53.47.76,1.12,1.13,1.96,1.13.67,0,1.23-.28,1.7-.85.47-.57.7-1.41.7-2.54,0-1.26-.23-2.16-.68-2.71s-1.03-.83-1.74-.83-1.26.27-1.73.82-.7,1.36-.7,2.45Z"/>
    <path class="cls-5" d="M278.54,144.5v-15.1h4.56l2.74,10.3,2.71-10.3h4.57v15.1h-2.83v-11.89l-3,11.89h-2.94l-2.99-11.89v11.89h-2.83Z"/>
    <path class="cls-5" d="M302.28,141.02l2.88.48c-.37,1.06-.96,1.86-1.76,2.42s-1.8.83-3,.83c-1.9,0-3.31-.62-4.22-1.86-.72-1-1.08-2.25-1.08-3.77,0-1.81.47-3.23,1.42-4.26.95-1.03,2.15-1.54,3.6-1.54,1.63,0,2.91.54,3.85,1.61.94,1.08,1.39,2.72,1.35,4.94h-7.25c.02.86.25,1.53.7,2s1,.72,1.67.72c.45,0,.83-.12,1.14-.37.31-.25.54-.65.7-1.2ZM302.45,138.1c-.02-.84-.24-1.47-.65-1.91-.41-.44-.91-.65-1.5-.65-.63,0-1.15.23-1.57.69-.41.46-.61,1.09-.61,1.88h4.33Z"/>
    <path class="cls-5" d="M306.47,141.38l2.91-.44c.12.56.37.99.75,1.28.38.29.91.44,1.59.44.75,0,1.31-.14,1.69-.41.25-.19.38-.45.38-.77,0-.22-.07-.4-.21-.55-.14-.14-.47-.26-.97-.38-2.34-.52-3.82-.99-4.44-1.41-.87-.59-1.3-1.41-1.3-2.46,0-.95.37-1.74,1.12-2.39.75-.65,1.91-.97,3.48-.97s2.61.24,3.34.73c.73.49,1.23,1.21,1.5,2.16l-2.73.5c-.12-.43-.34-.75-.66-.98-.33-.23-.79-.34-1.4-.34-.76,0-1.31.11-1.64.32-.22.15-.33.35-.33.59,0,.21.1.38.29.53.26.19,1.16.46,2.7.81,1.54.35,2.62.78,3.23,1.29.6.51.91,1.23.91,2.15,0,1-.42,1.86-1.26,2.59-.84.72-2.08,1.08-3.72,1.08-1.49,0-2.67-.3-3.54-.91s-1.44-1.43-1.7-2.46Z"/>
    <path class="cls-5" d="M318.02,141.38l2.91-.44c.12.56.37.99.75,1.28.38.29.91.44,1.59.44.75,0,1.31-.14,1.69-.41.25-.19.38-.45.38-.77,0-.22-.07-.4-.21-.55-.14-.14-.47-.26-.97-.38-2.34-.52-3.82-.99-4.44-1.41-.87-.59-1.3-1.41-1.3-2.46,0-.95.37-1.74,1.12-2.39.75-.65,1.91-.97,3.48-.97s2.61.24,3.34.73c.73.49,1.23,1.21,1.5,2.16l-2.73.5c-.12-.43-.34-.75-.66-.98-.33-.23-.79-.34-1.4-.34-.76,0-1.31.11-1.64.32-.22.15-.33.35-.33.59,0,.21.1.38.29.53.26.19,1.16.46,2.7.81,1.54.35,2.62.78,3.23,1.29.6.51.91,1.23.91,2.15,0,1-.42,1.86-1.26,2.59-.84.72-2.08,1.08-3.72,1.08-1.49,0-2.67-.3-3.54-.91s-1.44-1.43-1.7-2.46Z"/>
    <path class="cls-5" d="M332.75,136.9l-2.63-.47c.3-1.06.8-1.84,1.52-2.35.72-.51,1.79-.76,3.21-.76,1.29,0,2.25.15,2.88.46.63.31,1.08.69,1.33,1.16.26.47.39,1.33.39,2.59l-.03,3.38c0,.96.05,1.67.14,2.13.09.46.27.95.52,1.47h-2.86c-.08-.19-.17-.48-.28-.86-.05-.17-.08-.28-.1-.34-.49.48-1.02.84-1.59,1.08s-1.16.36-1.8.36c-1.13,0-2.01-.31-2.66-.92-.65-.61-.97-1.38-.97-2.32,0-.62.15-1.17.44-1.65.3-.48.71-.85,1.24-1.11s1.3-.48,2.3-.67c1.35-.25,2.29-.49,2.81-.71v-.29c0-.56-.14-.95-.41-1.19-.27-.24-.79-.36-1.56-.36-.51,0-.92.1-1.21.3-.29.2-.52.56-.7,1.07ZM336.62,139.25c-.37.12-.96.27-1.76.44-.8.17-1.33.34-1.58.5-.38.27-.57.61-.57,1.02s.15.76.45,1.05c.3.3.69.44,1.15.44.52,0,1.02-.17,1.49-.52.35-.26.58-.58.69-.96.08-.25.11-.72.11-1.41v-.58Z"/>
    <path class="cls-5" d="M341.86,145.23l3.31.4c.06.38.18.65.38.79.27.21.71.31,1.3.31.76,0,1.32-.11,1.7-.34.25-.15.45-.4.58-.73.09-.24.13-.68.13-1.33v-1.6c-.87,1.18-1.96,1.77-3.28,1.77-1.47,0-2.63-.62-3.49-1.86-.67-.98-1.01-2.2-1.01-3.67,0-1.83.44-3.23,1.32-4.2.88-.97,1.98-1.45,3.29-1.45s2.47.59,3.35,1.78v-1.53h2.71v9.82c0,1.29-.11,2.26-.32,2.9-.21.64-.51,1.14-.9,1.5-.38.36-.9.65-1.54.86-.64.21-1.45.31-2.44.31-1.85,0-3.17-.32-3.95-.95-.78-.64-1.16-1.44-1.16-2.42,0-.1,0-.21.01-.35ZM344.44,138.81c0,1.16.23,2.01.67,2.55.45.54,1,.81,1.66.81.71,0,1.3-.28,1.79-.83.49-.55.73-1.37.73-2.46s-.23-1.97-.7-2.52c-.47-.55-1.06-.82-1.77-.82s-1.27.27-1.72.81c-.45.54-.67,1.36-.67,2.47Z"/>
    <path class="cls-5" d="M361.16,141.02l2.88.48c-.37,1.06-.96,1.86-1.76,2.42s-1.8.83-3,.83c-1.9,0-3.31-.62-4.22-1.86-.72-1-1.08-2.25-1.08-3.77,0-1.81.47-3.23,1.42-4.26.95-1.03,2.15-1.54,3.6-1.54,1.63,0,2.91.54,3.85,1.61.94,1.08,1.39,2.72,1.35,4.94h-7.25c.02.86.25,1.53.7,2s1,.72,1.67.72c.45,0,.83-.12,1.14-.37.31-.25.54-.65.7-1.2ZM361.33,138.1c-.02-.84-.24-1.47-.65-1.91-.41-.44-.91-.65-1.5-.65-.63,0-1.15.23-1.57.69-.41.46-.61,1.09-.61,1.88h4.33Z"/>
    <path class="cls-5" d="M384.22,142.59c.75.54,1.56.96,2.44,1.28l-1.12,2.15c-.46-.14-.91-.33-1.35-.57-.1-.05-.77-.49-2.03-1.34-.99.43-2.08.65-3.29.65-2.32,0-4.14-.68-5.46-2.05s-1.97-3.29-1.97-5.76.66-4.38,1.98-5.75c1.32-1.37,3.11-2.06,5.37-2.06s4.01.69,5.33,2.06,1.97,3.29,1.97,5.75c0,1.31-.18,2.45-.55,3.44-.27.76-.71,1.49-1.32,2.19ZM381.77,140.87c.39-.46.68-1.02.88-1.67.2-.65.29-1.4.29-2.25,0-1.74-.38-3.05-1.15-3.91-.77-.86-1.78-1.29-3.02-1.29s-2.25.43-3.02,1.3c-.77.87-1.16,2.17-1.16,3.9s.39,3.09,1.16,3.96,1.75,1.31,2.93,1.31c.44,0,.85-.07,1.25-.22-.62-.41-1.25-.72-1.89-.95l.86-1.74c1,.34,1.96.86,2.87,1.55Z"/>
    <path class="cls-5" d="M395.47,144.5v-1.64c-.4.58-.92,1.04-1.57,1.38-.65.34-1.33.5-2.06.5s-1.39-.16-1.98-.48c-.58-.32-1.01-.78-1.27-1.36-.26-.58-.39-1.39-.39-2.42v-6.92h2.9v5.03c0,1.54.05,2.48.16,2.83.11.35.3.62.58.82.28.2.64.3,1.07.3.49,0,.94-.14,1.33-.41.39-.27.66-.61.8-1.01.14-.4.22-1.39.22-2.95v-4.62h2.89v10.94h-2.69Z"/>
    <path class="cls-5" d="M407.3,141.02l2.88.48c-.37,1.06-.96,1.86-1.76,2.42s-1.8.83-3,.83c-1.9,0-3.31-.62-4.22-1.86-.72-1-1.08-2.25-1.08-3.77,0-1.81.47-3.23,1.42-4.26.95-1.03,2.15-1.54,3.6-1.54,1.63,0,2.91.54,3.85,1.61.94,1.08,1.39,2.72,1.35,4.94h-7.25c.02.86.25,1.53.7,2s1,.72,1.67.72c.45,0,.83-.12,1.14-.37.31-.25.54-.65.7-1.2ZM407.46,138.1c-.02-.84-.24-1.47-.65-1.91-.41-.44-.91-.65-1.5-.65-.63,0-1.15.23-1.57.69-.41.46-.61,1.09-.61,1.88h4.33Z"/>
    <path class="cls-5" d="M419.71,144.5v-1.64c-.4.58-.92,1.04-1.57,1.38-.65.34-1.33.5-2.06.5s-1.39-.16-1.98-.48c-.58-.32-1.01-.78-1.27-1.36-.26-.58-.39-1.39-.39-2.42v-6.92h2.9v5.03c0,1.54.05,2.48.16,2.83.11.35.3.62.58.82.28.2.64.3,1.07.3.49,0,.94-.14,1.33-.41.39-.27.66-.61.8-1.01.14-.4.22-1.39.22-2.95v-4.62h2.89v10.94h-2.69Z"/>
    <path class="cls-5" d="M425.21,132.08v-2.68h2.89v2.68h-2.89ZM425.21,144.5v-10.94h2.89v10.94h-2.89Z"/>
    <path class="cls-5" d="M440.83,144.5h-2.9v-5.58c0-1.18-.06-1.95-.19-2.29-.12-.35-.32-.62-.6-.81-.28-.19-.61-.29-1-.29-.5,0-.95.14-1.35.41-.4.27-.67.64-.82,1.09s-.22,1.29-.22,2.51v4.96h-2.9v-10.94h2.69v1.61c.95-1.24,2.16-1.85,3.61-1.85.64,0,1.22.12,1.75.34.53.23.93.52,1.2.88.27.36.46.76.57,1.22.11.45.16,1.1.16,1.95v6.8Z"/>
    <path class="cls-5" d="M443.31,145.23l3.31.4c.06.38.18.65.38.79.27.21.71.31,1.3.31.76,0,1.32-.11,1.7-.34.25-.15.45-.4.58-.73.09-.24.13-.68.13-1.33v-1.6c-.87,1.18-1.96,1.77-3.28,1.77-1.47,0-2.63-.62-3.49-1.86-.67-.98-1.01-2.2-1.01-3.67,0-1.83.44-3.23,1.32-4.2.88-.97,1.98-1.45,3.29-1.45s2.47.59,3.35,1.78v-1.53h2.71v9.82c0,1.29-.11,2.26-.32,2.9-.21.64-.51,1.14-.9,1.5-.38.36-.9.65-1.54.86-.64.21-1.45.31-2.44.31-1.85,0-3.17-.32-3.95-.95-.78-.64-1.16-1.44-1.16-2.42,0-.1,0-.21.01-.35ZM445.89,138.81c0,1.16.23,2.01.67,2.55.45.54,1,.81,1.66.81.71,0,1.3-.28,1.79-.83.49-.55.73-1.37.73-2.46s-.23-1.97-.7-2.52c-.47-.55-1.06-.82-1.77-.82s-1.27.27-1.72.81c-.45.54-.67,1.36-.67,2.47Z"/>
    <path class="cls-5" d="M461.97,144.5v-15.1h4.89c1.85,0,3.06.08,3.63.23.87.23,1.59.72,2.17,1.48s.88,1.74.88,2.94c0,.93-.17,1.71-.5,2.34-.34.63-.76,1.13-1.28,1.49-.52.36-1.05.6-1.58.72-.73.14-1.78.22-3.16.22h-1.99v5.7h-3.05ZM465.02,131.96v4.29h1.67c1.2,0,2.01-.08,2.41-.24.41-.16.72-.41.95-.74s.35-.73.35-1.17c0-.55-.16-1-.48-1.36s-.73-.58-1.23-.67c-.36-.07-1.1-.1-2.19-.1h-1.47Z"/>
    <path class="cls-5" d="M478.6,144.5h-2.9v-10.94h2.69v1.56c.46-.73.87-1.22,1.24-1.45.37-.23.78-.35,1.25-.35.66,0,1.29.18,1.91.55l-.9,2.52c-.49-.32-.94-.47-1.36-.47s-.75.11-1.03.33c-.28.22-.5.63-.66,1.21-.16.58-.24,1.81-.24,3.67v3.38Z"/>
    <path class="cls-5" d="M483.18,138.88c0-.96.24-1.89.71-2.79.47-.9,1.15-1.59,2.01-2.06.87-.47,1.84-.71,2.91-.71,1.66,0,3.01.54,4.07,1.61,1.06,1.08,1.59,2.43,1.59,4.07s-.53,3.03-1.6,4.12c-1.07,1.09-2.41,1.63-4.03,1.63-1,0-1.96-.23-2.87-.68-.91-.45-1.6-1.12-2.08-1.99-.47-.88-.71-1.94-.71-3.2ZM486.15,139.03c0,1.09.26,1.92.77,2.49.51.58,1.15.87,1.91.87s1.39-.29,1.9-.87c.51-.58.77-1.41.77-2.51s-.26-1.9-.77-2.47c-.51-.58-1.15-.87-1.9-.87s-1.39.29-1.91.87c-.52.58-.77,1.41-.77,2.49Z"/>
    <path class="cls-5" d="M501.57,133.56v2.31h-1.98v4.41c0,.89.02,1.41.06,1.56s.12.27.26.37c.13.1.3.14.49.14.27,0,.66-.09,1.16-.28l.25,2.25c-.67.29-1.44.43-2.29.43-.52,0-.99-.09-1.41-.26-.42-.18-.73-.4-.92-.68-.2-.28-.33-.65-.41-1.13-.06-.34-.09-1.02-.09-2.04v-4.77h-1.33v-2.31h1.33v-2.17l2.91-1.69v3.86h1.98Z"/>
    <path class="cls-5" d="M502.72,138.88c0-.96.24-1.89.71-2.79.47-.9,1.15-1.59,2.01-2.06.87-.47,1.84-.71,2.91-.71,1.66,0,3.01.54,4.07,1.61,1.06,1.08,1.59,2.43,1.59,4.07s-.53,3.03-1.6,4.12c-1.07,1.09-2.41,1.63-4.03,1.63-1,0-1.96-.23-2.87-.68-.91-.45-1.6-1.12-2.08-1.99-.47-.88-.71-1.94-.71-3.2ZM505.68,139.03c0,1.09.26,1.92.77,2.49.51.58,1.15.87,1.91.87s1.39-.29,1.9-.87c.51-.58.77-1.41.77-2.51s-.26-1.9-.77-2.47c-.51-.58-1.15-.87-1.9-.87s-1.39.29-1.91.87c-.52.58-.77,1.41-.77,2.49Z"/>
    <path class="cls-5" d="M525.63,136.8l-2.85.52c-.1-.57-.31-1-.65-1.29-.34-.29-.78-.43-1.32-.43-.72,0-1.3.25-1.73.75s-.64,1.33-.64,2.5c0,1.3.22,2.21.65,2.75.44.54,1.02.8,1.76.8.55,0,1-.16,1.35-.47.35-.31.6-.85.74-1.61l2.84.48c-.3,1.31-.86,2.29-1.7,2.96-.84.67-1.96,1-3.37,1-1.6,0-2.88-.5-3.83-1.51s-1.43-2.41-1.43-4.19.48-3.21,1.43-4.22c.95-1.01,2.25-1.51,3.87-1.51,1.33,0,2.39.29,3.18.86.79.57,1.35,1.45,1.69,2.62Z"/>
    <path class="cls-5" d="M526.96,138.88c0-.96.24-1.89.71-2.79.47-.9,1.15-1.59,2.01-2.06.87-.47,1.84-.71,2.91-.71,1.66,0,3.01.54,4.07,1.61,1.06,1.08,1.59,2.43,1.59,4.07s-.53,3.03-1.6,4.12c-1.07,1.09-2.41,1.63-4.03,1.63-1,0-1.96-.23-2.87-.68-.91-.45-1.6-1.12-2.08-1.99-.47-.88-.71-1.94-.71-3.2ZM529.93,139.03c0,1.09.26,1.92.77,2.49.51.58,1.15.87,1.91.87s1.39-.29,1.9-.87c.51-.58.77-1.41.77-2.51s-.26-1.9-.77-2.47c-.51-.58-1.15-.87-1.9-.87s-1.39.29-1.91.87c-.52.58-.77,1.41-.77,2.49Z"/>
    <path class="cls-5" d="M540.33,144.5v-15.1h2.89v15.1h-2.89Z"/>
  </g>
</svg>