<?xml version="1.0" encoding="UTF-8"?>
<svg id="Layer_2" data-name="Layer 2" xmlns="http://www.w3.org/2000/svg" viewBox="0 0 372.79 70.56">
  <defs>
    <style>
      .cls-1 {
        fill: #e21f26;
      }
    </style>
  </defs>
  <g id="Layer_1-2" data-name="Layer 1">
    <g id="Beckhoff_Logo.svg" data-name="Beckhoff Logo.svg">
      <g>
        <path id="_519894920" data-name=" 519894920" class="cls-1" d="M15.83,40.22c6.75,.26,11.25,.08,11.25,7.9,0,9.07-3.33,8.53-11.25,8.71v-16.61h0Zm0-26.49c5.59,0,10.18-.27,10.18,6.37,0,7.99-3.24,7.55-10.18,7.99V13.73h0Zm6.49,55.22c12.87,0,20.61-5.84,20.61-19.49,0-8.35-1.53-11.95-8.72-16.07v-.18c5.48-2.96,7.64-8.26,7.64-14.18C41.85,5.47,32.49,1.61,20.51,1.61H0V68.96H22.32Z"/>
        <polygon id="_519894824" data-name=" 519894824" class="cls-1" points="86.82 68.96 86.82 55.48 65.31 55.48 65.31 40.93 85.11 40.93 85.11 27.46 65.31 27.46 65.31 15.08 85.74 15.08 85.74 1.61 49.46 1.61 49.46 68.96 86.82 68.96"/>
        <path id="_519894584" data-name=" 519894584" class="cls-1" d="M136,25.13v-5.66c0-13.73-8.11-19.48-21.61-19.48-14.49,0-21.24,6.82-21.24,21.46v27.65c0,13.73,5.67,21.45,20.25,21.45,16.2,0,22.85-8.07,22.85-19.65v-8.26h-15.83v6.1c0,4.14-.45,9.71-5.86,9.71-4.14,0-5.67-2.26-5.67-6.02l.1-33.31c0-4.4,1.17-7.09,6.12-7,2.97,0,5.04,2.97,5.04,8.71v4.3h15.84Z"/>
        <polygon id="_519894536" data-name=" 519894536" class="cls-1" points="158.72 68.96 158.72 52.35 162.24 45.52 170.98 68.96 187.71 68.96 172.41 31.33 186.81 1.61 170.61 1.61 158.91 28.55 158.72 28.55 158.72 1.61 142.89 1.61 142.89 68.96 158.72 68.96"/>
        <polygon id="_519894344" data-name=" 519894344" class="cls-1" points="207.75 68.96 207.75 40.93 218.73 40.93 218.73 68.96 234.56 68.96 234.56 1.61 218.73 1.61 218.73 27.46 207.75 27.46 207.75 1.61 191.91 1.61 191.91 68.96 207.75 68.96"/>
        <path id="_519894224" data-name=" 519894224" class="cls-1" d="M268.19,48.84c0,3.85-.36,9.62-5.48,9.62s-5.76-5.76-5.76-9.62V21.19c0-4.12,.63-9.07,5.67-9.07s5.57,4.95,5.57,9.07v27.65h0Zm15.85-28.73c0-12.92-7.48-20.1-21.33-20.1s-21.61,7.18-21.61,20.1v27.39c0,15.17,5.58,23.06,21.61,23.06s21.33-7.9,21.33-23.06V20.1h0Z"/>
        <polygon id="_519894368" data-name=" 519894368" class="cls-1" points="307.05 68.96 307.05 40.48 326.76 40.48 326.76 27.02 307.05 27.02 307.05 15.08 328.47 15.08 328.47 1.61 291.2 1.61 291.2 68.96 307.05 68.96"/>
        <polygon id="_519894608" data-name=" 519894608" class="cls-1" points="351.36 68.96 351.36 40.48 371.08 40.48 371.08 27.02 351.36 27.02 351.36 15.08 372.79 15.08 372.79 1.61 335.52 1.61 335.52 68.96 351.36 68.96"/>
      </g>
    </g>
  </g>
</svg>