<?xml version="1.0" encoding="UTF-8"?>
<svg id="Layer_2" data-name="Layer 2" xmlns="http://www.w3.org/2000/svg" viewBox="0 0 70.99 13.91">
  <defs>
    <style>
      .cls-1 {
        fill: #fff;
      }

      .cls-2, .cls-3 {
        fill: #ec1c24;
      }

      .cls-2, .cls-4 {
        fill-rule: evenodd;
      }

      .cls-4 {
        fill: #19489a;
      }

      .cls-5 {
        fill: #231f20;
      }
    </style>
  </defs>
  <g id="_2022_son" data-name="2022 son">
    <g>
      <g>
        <path class="cls-3" d="M14.22,6.86s0-.03,0-.04c0-1.67-1.44-3.02-3.22-3.02-1.37,0-2.54,.8-3,1.94,.83-.13,3.88-.47,6.22,1.12Z"/>
        <path class="cls-4" d="M11.08,0c-3.55-.05-6.5,2.49-6.94,5.93h1.68c.42-2.46,2.53-4.23,5.09-4.26,2.19-.03,4.08,1.27,4.9,3.15,.1,.24,.2,.51,.27,.79,.11,.42,.17,.87,.17,1.33,0,.31-.03,.61-.08,.9-.22,.88-.82,1.83-2.41,1.31-2.13-.71-2.62-1.45-8.51-1.01-3.18,.24-4.2-.51-4.2-.51l-1.06,1.16s1.15,1.48,5.71,.97c4.57-.52,4.8-.15,5.74,.2,.61,.23,1.73,.85,3.04,.91,0,0,0,0,0,0,.72,0,1.85-.23,2.76-1.59,.42-.62,.65-1.36,.67-2.11,0-.08,0-.16,0-.24C17.92,3.14,14.87,.05,11.08,0Z"/>
        <path class="cls-4" d="M14.19,11.18c-.88,.67-1.98,1.07-3.18,1.07-1.7,0-3.21-.8-4.17-2.05h-1.97c1.16,2.21,3.48,3.71,6.14,3.71s5.04-1.54,6.19-3.8c-1.31,1.13-2.57,1.12-3.01,1.07Z"/>
        <path class="cls-2" d="M11.02,2.2c-1.02,0-1.96,.31-2.74,.85-.53,.35-.93,.78-1.22,1.2,0,0,0,.01-.01,.02-.03,.05-.07,.1-.1,.15,0,0,0,.01-.01,.02-.52,.79-.67,1.5-.67,1.5l.73-.08,.55-.04c.52-1.42,1.88-2.44,3.48-2.44,1.84,0,3.24,1.35,3.62,3.11,.19,.85-.11,1.09-.77,.76,0,0-1.15-.87-2.82-1.11-1.72-.25-3.92,.1-4.89,.15-.92,.04-3.53-.02-3.93-.25l-1.06,1.41s.93,.2,2.78,.29c1.04,.05,2.36,.08,3.97,.01,3.75-.15,4.91,.63,4.91,.63,0,0,.72,.4,1.44,.48,0,0,.03,0,.03,0,.26,.03,.48,.05,.78-.08,.31-.12,.56-.37,.69-.82,.06-.18,.1-.39,.12-.64,0-.08,0-.17,0-.25,0-2.69-2.18-4.87-4.87-4.87Z"/>
        <path class="cls-2" d="M12.23,10.57c-.33,.16-.76,.22-1.21,.2-.88-.03-1.69-.31-2.33-.83h-1.67c.89,1.21,2.39,1.99,4,1.99,1,0,1.92-.3,2.69-.81l-1.49-.56Z"/>
        <path class="cls-1" d="M11.44,7.29c0-.46-.37-.83-.83-.83H6.61c-.46,0-.83,.37-.83,.83s.37,.83,.83,.83h.15s.89,0,.89,0c.14,0,.25,.12,.25,.27s-.11,.27-.25,.27H3.54v-.55h1.89v-.55h-1.89v-.31h0c.02-.13,.12-.23,.25-.23h1.64v-.55h-1.66c-.44,0-.8,.35-.82,.79h0v1.97H7.67c.46,0,.83-.37,.83-.83s-.37-.83-.83-.83h-.39s-.64,0-.64,0c-.14,0-.25-.12-.25-.27s.11-.27,.25-.27h3.99c.14,0,.25,.12,.25,.27s-.11,.27-.25,.27h-1.9v.56h1.9c.14,0,.25,.12,.25,.27s-.11,.27-.25,.27h-1.9v.55h1.89c.46,0,.83-.37,.83-.83,0-.21-.08-.4-.21-.55,.13-.15,.21-.34,.21-.55Z"/>
      </g>
      <g>
        <path class="cls-5" d="M28.71,1.2v1.24h-4.51v.99h4.23v1.19h-4.23v1.16h4.68v1.24h-8.22V1.2h8.05Z"/>
        <path class="cls-5" d="M35.47,2.73c0-.17-.08-.32-.25-.44-.17-.12-.42-.18-.76-.18-.38,0-.66,.05-.84,.16-.18,.11-.27,.22-.27,.35,0,.19,.14,.34,.43,.45,.29,.11,.64,.21,1.08,.29,.43,.08,.89,.16,1.39,.25,.49,.08,.96,.19,1.39,.33,.43,.14,.79,.31,1.08,.53,.29,.22,.43,.51,.43,.86,0,.62-.41,1.07-1.24,1.35-.83,.28-2.02,.42-3.58,.42-.74,0-1.39-.03-1.95-.08-.56-.05-1.04-.14-1.43-.27-.39-.13-.68-.29-.89-.5-.2-.21-.3-.46-.3-.76v-.2h3.43v.14c0,.25,.11,.42,.32,.52,.22,.1,.49,.15,.84,.15,.37,0,.65-.05,.85-.16,.2-.11,.3-.24,.3-.4,0-.19-.14-.34-.41-.45-.27-.11-.62-.21-1.03-.28-.41-.08-.86-.16-1.34-.24-.48-.08-.93-.19-1.34-.32-.41-.13-.76-.3-1.03-.51-.27-.21-.41-.49-.41-.83,0-.59,.37-1.04,1.1-1.35,.74-.31,1.85-.46,3.35-.46s2.67,.14,3.36,.43c.69,.28,1.04,.74,1.04,1.36h-3.31v-.14Z"/>
        <path class="cls-5" d="M45.86,1.2c1.27,0,2.21,.13,2.81,.39,.6,.26,.9,.61,.9,1.05,0,.15-.04,.3-.12,.44-.08,.14-.21,.27-.38,.39-.17,.12-.39,.22-.66,.3-.27,.08-.59,.14-.97,.17v.02c.44,.02,.82,.07,1.14,.15,.32,.08,.58,.19,.78,.31,.2,.12,.35,.26,.45,.41,.1,.15,.14,.3,.14,.45,0,.25-.08,.48-.23,.69s-.39,.39-.71,.55c-.32,.15-.75,.27-1.27,.35-.52,.08-1.15,.13-1.88,.13h-5.35V1.2h5.35Zm-.95,2.28c.37,0,.65-.06,.84-.17,.19-.12,.29-.25,.29-.41s-.1-.3-.29-.42c-.19-.12-.47-.18-.84-.18h-.86v1.19h.86Zm.13,2.44c.33,0,.62-.06,.88-.17,.25-.12,.38-.3,.38-.54,0-.23-.13-.4-.38-.52-.25-.12-.55-.18-.88-.18h-.99v1.42h.99Z"/>
        <path class="cls-5" d="M58.01,1.2l3.31,5.81h-3.77l-.36-1.02h-2.82l-.36,1.02h-3.71l3.26-5.81h4.45Zm-2.25,1.19l-.97,2.47h1.98l-.97-2.47h-.04Z"/>
        <path class="cls-5" d="M67.2,2.73c0-.17-.08-.32-.25-.44-.17-.12-.42-.18-.76-.18-.38,0-.66,.05-.84,.16-.18,.11-.27,.22-.27,.35,0,.19,.14,.34,.43,.45,.29,.11,.64,.21,1.08,.29,.43,.08,.89,.16,1.39,.25,.49,.08,.96,.19,1.39,.33,.43,.14,.79,.31,1.08,.53,.29,.22,.43,.51,.43,.86,0,.62-.41,1.07-1.24,1.35-.83,.28-2.02,.42-3.58,.42-.74,0-1.39-.03-1.95-.08-.56-.05-1.04-.14-1.43-.27-.39-.13-.68-.29-.89-.5-.2-.21-.3-.46-.3-.76v-.2h3.43v.14c0,.25,.11,.42,.32,.52,.22,.1,.49,.15,.84,.15,.37,0,.65-.05,.85-.16,.2-.11,.3-.24,.3-.4,0-.19-.14-.34-.41-.45-.27-.11-.62-.21-1.03-.28-.41-.08-.86-.16-1.34-.24-.48-.08-.93-.19-1.34-.32-.41-.13-.76-.3-1.03-.51-.27-.21-.41-.49-.41-.83,0-.59,.37-1.04,1.1-1.35,.74-.31,1.85-.46,3.35-.46s2.67,.14,3.36,.43c.69,.28,1.04,.74,1.04,1.36h-3.31v-.14Zm-1.01,4.71c.19-.03,.37-.04,.55-.04,.46,0,.86,.05,1.22,.15,.36,.1,.53,.27,.53,.49,0,.28-.22,.48-.67,.61-.44,.13-1.05,.2-1.81,.2-.37,0-.75-.02-1.14-.04-.39-.03-.74-.07-1.03-.12l.42-.46c.42,.09,.85,.13,1.29,.13,.29,0,.52-.03,.69-.08,.17-.05,.26-.12,.26-.2,0-.11-.09-.18-.27-.21-.18-.03-.35-.05-.51-.05-.1,0-.2,0-.29,.02-.09,.01-.18,.02-.27,.04l-.48-.17,.97-.76h1.14l-.63,.49Z"/>
      </g>
      <g>
        <g>
          <path class="cls-5" d="M21.28,12.33h.33l.5,1.41h-.32l-.09-.29h-.52l-.1,.29h-.31l.5-1.41Zm-.02,.88h.36l-.18-.56-.18,.56Z"/>
          <path class="cls-5" d="M23.24,12.58h-.73v.3h.67v.25h-.67v.36h.77v.25h-1.06v-1.41h1.02v.25Z"/>
          <path class="cls-5" d="M24.4,12.77c-.02-.1-.08-.16-.16-.2-.05-.02-.1-.03-.16-.03-.11,0-.21,.04-.28,.13-.07,.09-.11,.21-.11,.39s.04,.3,.12,.37c.08,.07,.17,.11,.27,.11s.18-.03,.24-.09c.06-.06,.1-.13,.12-.22h-.33v-.24h.59v.76h-.2l-.03-.18c-.06,.07-.11,.11-.15,.14-.08,.05-.17,.07-.29,.07-.19,0-.34-.06-.46-.19-.12-.13-.19-.31-.19-.53s.06-.41,.19-.55c.13-.14,.29-.21,.5-.21,.18,0,.32,.05,.43,.14,.11,.09,.17,.2,.19,.34h-.29Z"/>
          <path class="cls-5" d="M25.93,12.58h-.73v.3h.67v.25h-.67v.36h.77v.25h-1.06v-1.41h1.02v.25Z"/>
          <path class="cls-5" d="M26.53,12.33h.33l.5,1.41h-.32l-.09-.29h-.52l-.1,.29h-.31l.5-1.41Zm-.02,.88h.36l-.18-.56-.18,.56Z"/>
          <path class="cls-5" d="M27.46,12.33h.31l.56,.99v-.99h.28v1.41h-.3l-.58-1v1h-.28v-1.41Z"/>
          <path class="cls-5" d="M29.28,12.33h1.01v.25h-.71v.33h.63v.25h-.63v.59h-.29v-1.41Z"/>
          <path class="cls-5" d="M31.3,12.36c.05,.02,.1,.06,.13,.1,.03,.04,.05,.08,.07,.12,.02,.04,.03,.09,.03,.15,0,.07-.02,.13-.05,.2-.03,.06-.09,.11-.17,.14,.07,.03,.11,.06,.14,.11,.03,.05,.04,.12,.04,.22v.09c0,.06,0,.11,0,.13,0,.04,.03,.06,.05,.08v.04h-.33s-.02-.06-.02-.08c0-.04-.01-.08-.01-.12v-.13c0-.09-.02-.15-.05-.18-.03-.03-.09-.05-.17-.05h-.29v.55h-.29v-1.41h.68c.1,0,.17,.01,.22,.04Zm-.61,.21v.38h.32c.06,0,.11,0,.14-.02,.06-.03,.08-.08,.08-.16,0-.09-.03-.14-.08-.17-.03-.02-.08-.02-.14-.02h-.33Z"/>
          <path class="cls-5" d="M32.77,12.58h-.73v.3h.67v.25h-.67v.36h.77v.25h-1.06v-1.41h1.02v.25Z"/>
          <path class="cls-5" d="M34,12.58h-.73v.3h.67v.25h-.67v.36h.77v.25h-1.06v-1.41h1.02v.25Z"/>
          <path class="cls-5" d="M34.57,13.49l.72-.91h-.7v-.25h1.07v.24l-.73,.93h.73v.25h-1.09v-.25Z"/>
          <path class="cls-5" d="M36.88,13.62c-.11,.11-.26,.16-.46,.16s-.36-.05-.46-.16c-.14-.13-.21-.33-.21-.58s.07-.45,.21-.58c.11-.11,.26-.16,.46-.16s.36,.06,.46,.16c.14,.13,.21,.32,.21,.58s-.07,.45-.21,.58Zm-.18-.21c.07-.09,.1-.21,.1-.37s-.03-.28-.1-.37c-.07-.09-.16-.13-.28-.13s-.21,.04-.28,.13c-.07,.09-.1,.21-.1,.37s.03,.28,.1,.37c.07,.09,.16,.13,.28,.13s.21-.04,.28-.13Z"/>
          <path class="cls-5" d="M37.23,12.33h.31l.56,.99v-.99h.28v1.41h-.3l-.58-1v1h-.28v-1.41Z"/>
          <path class="cls-5" d="M39.61,12.58h-.73v.3h.67v.25h-.67v.36h.77v.25h-1.06v-1.41h1.02v.25Z"/>
          <path class="cls-5" d="M41.11,12.36c.1,.03,.18,.09,.24,.18,.05,.07,.08,.15,.1,.23,.02,.08,.03,.16,.03,.23,0,.19-.04,.35-.11,.48-.1,.18-.26,.26-.47,.26h-.61v-1.41h.61c.09,0,.16,.01,.22,.03Zm-.54,.21v.92h.27c.14,0,.24-.07,.29-.21,.03-.08,.05-.17,.05-.27,0-.14-.02-.25-.07-.33-.05-.08-.13-.12-.27-.12h-.27Z"/>
          <path class="cls-5" d="M42.65,12.58h-.73v.3h.67v.25h-.67v.36h.77v.25h-1.06v-1.41h1.02v.25Z"/>
          <path class="cls-5" d="M43.68,12.33h.31l-.48,1.41h-.28l-.48-1.41h.32l.31,1.07,.31-1.07Z"/>
          <path class="cls-5" d="M45.11,12.58h-.73v.3h.67v.25h-.67v.36h.77v.25h-1.06v-1.41h1.02v.25Z"/>
          <path class="cls-5" d="M45.31,12.33h.3v1.16h.71v.25h-1v-1.41Z"/>
          <path class="cls-5" d="M47.52,13.62c-.11,.11-.26,.16-.46,.16s-.36-.05-.46-.16c-.14-.13-.21-.33-.21-.58s.07-.45,.21-.58c.11-.11,.26-.16,.46-.16s.36,.06,.46,.16c.14,.13,.21,.32,.21,.58s-.07,.45-.21,.58Zm-.18-.21c.07-.09,.1-.21,.1-.37s-.03-.28-.1-.37c-.07-.09-.16-.13-.28-.13s-.21,.04-.28,.13c-.07,.09-.1,.21-.1,.37s.03,.28,.1,.37c.07,.09,.16,.13,.28,.13s.21-.04,.28-.13Z"/>
          <path class="cls-5" d="M48.83,13.13c-.08,.07-.2,.1-.35,.1h-.29v.51h-.29v-1.41h.61c.14,0,.25,.04,.33,.11,.08,.07,.12,.19,.12,.34,0,.17-.04,.28-.12,.35Zm-.23-.51s-.09-.05-.16-.05h-.27v.42h.27c.07,0,.12-.02,.16-.05,.04-.03,.06-.09,.06-.16s-.02-.13-.06-.16Z"/>
          <path class="cls-5" d="M50.06,12.33h.43v1.41h-.28v-.96s0-.07,0-.12c0-.05,0-.09,0-.11l-.27,1.19h-.29l-.27-1.19s0,.07,0,.11c0,.05,0,.09,0,.12v.96h-.28v-1.41h.43l.26,1.11,.26-1.11Z"/>
          <path class="cls-5" d="M51.71,12.58h-.73v.3h.67v.25h-.67v.36h.77v.25h-1.06v-1.41h1.02v.25Z"/>
          <path class="cls-5" d="M51.9,12.33h.31l.56,.99v-.99h.28v1.41h-.3l-.58-1v1h-.28v-1.41Z"/>
          <path class="cls-5" d="M54.27,12.33v.25h-.42v1.16h-.3v-1.16h-.42v-.25h1.15Z"/>
          <path class="cls-5" d="M54.86,13.15c.04-.06,.11-.12,.21-.18l.03-.02s-.07-.09-.09-.14c-.02-.05-.03-.1-.03-.15,0-.1,.03-.18,.1-.24,.07-.06,.16-.09,.27-.09,.1,0,.19,.03,.25,.09,.07,.06,.1,.14,.1,.23,0,.08-.02,.15-.06,.2-.04,.05-.1,.1-.18,.14l.2,.25s.04-.07,.05-.11c.01-.04,.02-.08,.02-.12h.24c0,.09-.03,.17-.06,.26-.02,.05-.05,.1-.1,.16l.26,.31h-.33l-.1-.12s-.09,.08-.13,.1c-.07,.04-.16,.06-.26,.06-.14,0-.26-.04-.34-.13-.08-.08-.12-.18-.12-.28,0-.09,.02-.16,.06-.22Zm.27,.34s.09,.06,.15,.06c.05,0,.09-.01,.13-.03,.04-.02,.07-.04,.1-.07l-.26-.32c-.07,.05-.12,.09-.14,.12-.02,.03-.03,.07-.03,.11,0,.05,.02,.09,.06,.13Zm.12-.76s.04,.05,.08,.1c.04-.03,.07-.05,.09-.07,.03-.03,.05-.07,.05-.11,0-.03,0-.06-.03-.08-.02-.02-.05-.03-.09-.03-.03,0-.05,0-.07,.02-.03,.02-.05,.05-.05,.09,0,.03,0,.05,.03,.08Z"/>
          <path class="cls-5" d="M57.73,13.62c-.11,.11-.26,.16-.46,.16s-.36-.05-.46-.16c-.14-.13-.21-.33-.21-.58s.07-.45,.21-.58c.11-.11,.26-.16,.46-.16s.36,.06,.46,.16c.14,.13,.21,.32,.21,.58s-.07,.45-.21,.58Zm-.18-.21c.07-.09,.1-.21,.1-.37s-.03-.28-.1-.37c-.07-.09-.16-.13-.28-.13s-.21,.04-.28,.13c-.07,.09-.1,.21-.1,.37s.03,.28,.1,.37c.07,.09,.16,.13,.28,.13s.21-.04,.28-.13Z"/>
          <path class="cls-5" d="M59.04,13.13c-.08,.07-.2,.1-.35,.1h-.29v.51h-.29v-1.41h.61c.14,0,.25,.04,.33,.11,.08,.07,.12,.19,.12,.34,0,.17-.04,.28-.12,.35Zm-.23-.51s-.09-.05-.16-.05h-.27v.42h.27c.07,0,.12-.02,.16-.05,.04-.03,.06-.09,.06-.16s-.02-.13-.06-.16Z"/>
          <path class="cls-5" d="M60.36,12.58h-.73v.3h.67v.25h-.67v.36h.77v.25h-1.06v-1.41h1.02v.25Z"/>
          <path class="cls-5" d="M61.46,12.36c.05,.02,.1,.06,.13,.1,.03,.04,.05,.08,.07,.12,.02,.04,.03,.09,.03,.15,0,.07-.02,.13-.05,.2-.03,.06-.09,.11-.17,.14,.07,.03,.11,.06,.14,.11,.03,.05,.04,.12,.04,.22v.09c0,.06,0,.11,0,.13,0,.04,.03,.06,.05,.08v.04h-.33s-.02-.06-.02-.08c0-.04-.01-.08-.01-.12v-.13c0-.09-.02-.15-.05-.18-.03-.03-.09-.05-.17-.05h-.29v.55h-.29v-1.41h.68c.1,0,.17,.01,.22,.04Zm-.61,.21v.38h.32c.06,0,.11,0,.14-.02,.06-.03,.08-.08,.08-.16,0-.09-.03-.14-.08-.17-.03-.02-.08-.02-.14-.02h-.33Z"/>
          <path class="cls-5" d="M62.3,12.33h.33l.5,1.41h-.32l-.09-.29h-.52l-.1,.29h-.31l.5-1.41Zm-.02,.88h.36l-.18-.56-.18,.56Z"/>
          <path class="cls-5" d="M64.12,12.33v.25h-.42v1.16h-.3v-1.16h-.42v-.25h1.15Z"/>
          <path class="cls-5" d="M64.48,13.74h-.29v-1.41h.29v1.41Z"/>
          <path class="cls-5" d="M64.68,12.33h.31l.56,.99v-.99h.28v1.41h-.3l-.58-1v1h-.28v-1.41Z"/>
          <path class="cls-5" d="M66.97,12.77c-.02-.1-.08-.16-.16-.2-.05-.02-.1-.03-.16-.03-.11,0-.21,.04-.28,.13-.07,.09-.11,.21-.11,.39s.04,.3,.12,.37c.08,.07,.17,.11,.27,.11s.18-.03,.24-.09c.06-.06,.1-.13,.12-.22h-.33v-.24h.59v.76h-.2l-.03-.18c-.06,.07-.11,.11-.15,.14-.08,.05-.17,.07-.29,.07-.19,0-.34-.06-.46-.19-.12-.13-.19-.31-.19-.53s.06-.41,.19-.55c.13-.14,.29-.21,.5-.21,.18,0,.32,.05,.43,.14,.11,.09,.17,.2,.19,.34h-.29Z"/>
          <path class="cls-5" d="M68.07,12.48c.11-.12,.26-.17,.43-.17,.24,0,.41,.08,.52,.23,.06,.09,.09,.18,.1,.26h-.3c-.02-.07-.04-.12-.07-.15-.05-.06-.13-.09-.23-.09s-.19,.04-.25,.13c-.06,.09-.09,.21-.09,.37s.03,.28,.1,.36c.06,.08,.15,.12,.24,.12s.18-.03,.23-.1c.03-.04,.05-.09,.07-.16h.29c-.03,.15-.09,.28-.19,.38-.1,.1-.24,.14-.4,.14-.2,0-.36-.07-.47-.2-.12-.13-.17-.31-.17-.54,0-.25,.07-.44,.2-.57Z"/>
          <path class="cls-5" d="M70.37,13.62c-.11,.11-.26,.16-.46,.16s-.36-.05-.46-.16c-.14-.13-.21-.33-.21-.58s.07-.45,.21-.58c.11-.11,.26-.16,.46-.16s.36,.06,.46,.16c.14,.13,.21,.32,.21,.58s-.07,.45-.21,.58Zm-.18-.21c.07-.09,.1-.21,.1-.37s-.03-.28-.1-.37c-.07-.09-.16-.13-.28-.13s-.21,.04-.28,.13c-.07,.09-.1,.21-.1,.37s.03,.28,.1,.37c.07,.09,.16,.13,.28,.13s.21-.04,.28-.13Z"/>
          <path class="cls-5" d="M70.7,13.45h.29v.29h-.29v-.29Z"/>
        </g>
        <g>
          <path class="cls-5" d="M21.95,10.3h-.76v.31h.7v.25h-.7v.38h.8v.26h-1.1v-1.47h1.06v.26Z"/>
          <path class="cls-5" d="M23.22,10.5c-.02-.1-.08-.17-.17-.21-.05-.02-.11-.03-.17-.03-.12,0-.22,.04-.29,.13-.08,.09-.11,.22-.11,.4s.04,.31,.12,.38c.08,.07,.18,.11,.28,.11s.19-.03,.25-.09c.07-.06,.11-.14,.12-.23h-.34v-.24h.61v.79h-.2l-.03-.18c-.06,.07-.11,.12-.16,.15-.08,.05-.18,.07-.3,.07-.19,0-.35-.07-.48-.2-.13-.14-.19-.32-.19-.55s.07-.43,.2-.57c.13-.14,.3-.21,.52-.21,.19,0,.34,.05,.45,.14,.11,.09,.18,.21,.19,.35h-.3Z"/>
          <path class="cls-5" d="M24.89,10.3h-.76v.31h.7v.25h-.7v.38h.8v.26h-1.1v-1.47h1.06v.26Z"/>
          <path class="cls-5" d="M25.97,11.05c0,.07,.03,.12,.06,.15,.05,.06,.14,.09,.26,.09,.07,0,.13,0,.18-.02,.09-.03,.13-.09,.13-.17,0-.05-.02-.09-.06-.11-.04-.03-.11-.05-.2-.07l-.16-.03c-.16-.03-.26-.07-.32-.11-.1-.07-.15-.17-.15-.32,0-.13,.05-.24,.15-.33,.1-.09,.24-.13,.43-.13,.16,0,.29,.04,.4,.12,.11,.08,.17,.2,.17,.36h-.29c0-.09-.04-.15-.12-.19-.05-.02-.11-.04-.18-.04-.08,0-.15,.02-.19,.05-.05,.03-.07,.08-.07,.13,0,.05,.02,.09,.07,.12,.03,.02,.1,.04,.19,.06l.26,.06c.11,.03,.2,.06,.25,.11,.09,.07,.13,.17,.13,.3s-.05,.25-.16,.33c-.1,.09-.25,.13-.44,.13s-.34-.04-.46-.13c-.11-.09-.17-.21-.17-.36h.29Z"/>
          <path class="cls-5" d="M28.18,10.3h-.76v.31h.7v.25h-.7v.38h.8v.26h-1.1v-1.47h1.06v.26Z"/>
          <path class="cls-5" d="M29.41,10.08c.05,.02,.1,.06,.14,.1,.03,.04,.06,.08,.07,.12,.02,.05,.03,.1,.03,.15,0,.07-.02,.14-.05,.21-.04,.07-.09,.11-.17,.14,.07,.03,.12,.07,.14,.12,.03,.05,.04,.13,.04,.23v.1c0,.07,0,.11,0,.14,0,.04,.03,.07,.06,.08v.04h-.34s-.02-.06-.02-.08c0-.04-.01-.08-.01-.13v-.14c0-.09-.02-.16-.05-.19-.03-.03-.09-.05-.17-.05h-.3v.58h-.3v-1.47h.7c.1,0,.18,.01,.23,.04Zm-.63,.22v.39h.33c.07,0,.11,0,.15-.02,.06-.03,.09-.08,.09-.17,0-.09-.03-.15-.08-.18-.03-.02-.08-.03-.14-.03h-.34Z"/>
          <path class="cls-5" d="M31.03,10.19c.04,.06,.07,.14,.07,.22s-.02,.16-.07,.22c-.03,.03-.06,.06-.11,.08,.07,.03,.13,.07,.17,.13,.04,.06,.06,.13,.06,.21s-.02,.16-.07,.23c-.03,.05-.06,.08-.1,.12-.05,.04-.1,.06-.17,.07-.06,.01-.13,.02-.21,.02h-.66v-1.47h.71c.18,0,.31,.05,.38,.16Zm-.8,.1v.32h.36c.06,0,.12-.01,.16-.04,.04-.02,.06-.07,.06-.13,0-.07-.03-.11-.08-.14-.05-.02-.1-.02-.17-.02h-.32Zm0,.57v.39h.36c.06,0,.11,0,.15-.03,.06-.03,.1-.09,.1-.18,0-.08-.03-.13-.09-.16-.03-.02-.08-.02-.15-.02h-.36Z"/>
          <path class="cls-5" d="M32.48,10.3h-.76v.31h.7v.25h-.7v.38h.8v.26h-1.1v-1.47h1.06v.26Z"/>
          <path class="cls-5" d="M32.99,11.05c0,.07,.03,.12,.06,.15,.05,.06,.14,.09,.26,.09,.07,0,.13,0,.18-.02,.09-.03,.13-.09,.13-.17,0-.05-.02-.09-.06-.11-.04-.03-.11-.05-.2-.07l-.16-.03c-.16-.03-.26-.07-.32-.11-.1-.07-.15-.17-.15-.32,0-.13,.05-.24,.15-.33,.1-.09,.24-.13,.43-.13,.16,0,.29,.04,.4,.12,.11,.08,.17,.2,.17,.36h-.29c0-.09-.04-.15-.12-.19-.05-.02-.11-.04-.18-.04-.08,0-.15,.02-.19,.05-.05,.03-.07,.08-.07,.13,0,.05,.02,.09,.07,.12,.03,.02,.1,.04,.19,.06l.26,.06c.11,.03,.2,.06,.25,.11,.09,.07,.13,.17,.13,.3s-.05,.25-.16,.33c-.1,.09-.25,.13-.44,.13s-.34-.04-.46-.13c-.11-.09-.17-.21-.17-.36h.29Z"/>
          <path class="cls-5" d="M35.19,10.04v.26h-.44v1.21h-.31v-1.21h-.44v-.26h1.19Z"/>
          <path class="cls-5" d="M37.03,10.19c.04,.06,.07,.14,.07,.22s-.02,.16-.07,.22c-.03,.03-.06,.06-.11,.08,.07,.03,.13,.07,.17,.13,.04,.06,.06,.13,.06,.21s-.02,.16-.07,.23c-.03,.05-.06,.08-.1,.12-.05,.04-.1,.06-.17,.07-.06,.01-.13,.02-.21,.02h-.66v-1.47h.71c.18,0,.31,.05,.38,.16Zm-.8,.1v.32h.36c.06,0,.12-.01,.16-.04,.04-.02,.06-.07,.06-.13,0-.07-.03-.11-.08-.14-.05-.02-.1-.02-.17-.02h-.32Zm0,.57v.39h.36c.06,0,.11,0,.15-.03,.06-.03,.1-.09,.1-.18,0-.08-.03-.13-.09-.16-.03-.02-.08-.02-.15-.02h-.36Z"/>
          <path class="cls-5" d="M38.54,11.37c-.11,.11-.27,.17-.48,.17s-.37-.06-.48-.17c-.15-.14-.22-.34-.22-.6s.07-.47,.22-.6c.11-.11,.27-.17,.48-.17s.37,.06,.48,.17c.15,.13,.22,.34,.22,.6s-.07,.46-.22,.6Zm-.19-.22c.07-.09,.11-.22,.11-.38s-.04-.29-.11-.38c-.07-.09-.17-.13-.29-.13s-.22,.04-.29,.13c-.07,.09-.11,.22-.11,.38s.04,.29,.11,.38c.07,.09,.17,.13,.29,.13s.22-.04,.29-.13Zm-.62-1.53h.26v.24h-.26v-.24Zm.4,0h.26v.24h-.26v-.24Z"/>
          <path class="cls-5" d="M39,10.04h.31v1.2h.73v.26h-1.04v-1.47Z"/>
          <path class="cls-5" d="M41.23,10.5c-.02-.1-.08-.17-.17-.21-.05-.02-.11-.03-.17-.03-.12,0-.22,.04-.29,.13-.08,.09-.11,.22-.11,.4s.04,.31,.12,.38c.08,.07,.18,.11,.28,.11s.19-.03,.25-.09c.07-.06,.11-.14,.12-.23h-.34v-.24h.61v.79h-.2l-.03-.18c-.06,.07-.11,.12-.16,.15-.08,.05-.18,.07-.3,.07-.19,0-.35-.07-.48-.2-.13-.14-.19-.32-.19-.55s.07-.43,.2-.57c.13-.14,.3-.21,.52-.21,.19,0,.34,.05,.45,.14,.11,.09,.18,.21,.19,.35h-.3Z"/>
          <path class="cls-5" d="M42.9,10.3h-.76v.31h.7v.25h-.7v.38h.8v.26h-1.1v-1.47h1.06v.26Z"/>
          <path class="cls-5" d="M43.76,10.04h.3v.6l.57-.6h.4l-.6,.6,.63,.86h-.39l-.45-.64-.15,.15v.49h-.3v-1.47Z"/>
          <path class="cls-5" d="M45.22,10.04h.31v.9c0,.1,.01,.17,.04,.22,.04,.08,.12,.12,.24,.12s.2-.04,.24-.12c.02-.05,.04-.12,.04-.22v-.9h.31v.9c0,.16-.02,.28-.07,.36-.09,.16-.26,.24-.52,.24s-.43-.08-.52-.24c-.05-.09-.07-.21-.07-.36v-.9Z"/>
          <path class="cls-5" d="M47.63,10.08c.05,.02,.1,.06,.14,.1,.03,.04,.06,.08,.07,.12,.02,.05,.03,.1,.03,.15,0,.07-.02,.14-.05,.21-.04,.07-.09,.11-.17,.14,.07,.03,.12,.07,.14,.12,.03,.05,.04,.13,.04,.23v.1c0,.07,0,.11,0,.14,0,.04,.03,.07,.06,.08v.04h-.34s-.02-.06-.02-.08c0-.04-.01-.08-.01-.13v-.14c0-.09-.02-.16-.05-.19-.03-.03-.09-.05-.17-.05h-.3v.58h-.3v-1.47h.7c.1,0,.18,.01,.23,.04Zm-.63,.22v.39h.33c.07,0,.11,0,.15-.02,.06-.03,.09-.08,.09-.17,0-.09-.03-.15-.08-.18-.03-.02-.08-.03-.14-.03h-.34Z"/>
          <path class="cls-5" d="M48.17,10.04h.31v.9c0,.1,.01,.17,.04,.22,.04,.08,.12,.12,.24,.12s.2-.04,.24-.12c.02-.05,.04-.12,.04-.22v-.9h.31v.9c0,.16-.02,.28-.07,.36-.09,.16-.26,.24-.52,.24s-.43-.08-.52-.24c-.05-.09-.07-.21-.07-.36v-.9Z"/>
          <path class="cls-5" d="M49.78,10.19c.12-.12,.27-.18,.45-.18,.24,0,.42,.08,.54,.24,.06,.09,.1,.18,.1,.27h-.31c-.02-.07-.04-.12-.08-.16-.05-.06-.14-.1-.24-.1s-.2,.04-.26,.13c-.06,.09-.09,.22-.09,.38s.03,.29,.1,.37c.07,.08,.15,.12,.25,.12s.19-.04,.24-.11c.03-.04,.06-.09,.08-.17h.3c-.03,.16-.09,.29-.2,.39-.11,.1-.25,.15-.41,.15-.21,0-.37-.07-.49-.2-.12-.14-.18-.32-.18-.56,0-.26,.07-.45,.2-.59Z"/>
          <path class="cls-5" d="M51.11,10.04h.31v.9c0,.1,.01,.17,.04,.22,.04,.08,.12,.12,.24,.12s.2-.04,.24-.12c.02-.05,.04-.12,.04-.22v-.9h.31v.9c0,.16-.02,.28-.07,.36-.09,.16-.26,.24-.52,.24s-.43-.08-.52-.24c-.05-.09-.07-.21-.07-.36v-.9Z"/>
          <path class="cls-5" d="M54.01,10.04h.32l-.5,1.47h-.29l-.5-1.47h.33l.32,1.11,.32-1.11Z"/>
          <path class="cls-5" d="M55.58,10.3h-.76v.31h.7v.25h-.7v.38h.8v.26h-1.1v-1.47h1.06v.26Z"/>
          <path class="cls-5" d="M56.71,11.51h-.3v-1.47h.3v1.47Zm-.28-1.84h.26v.24h-.26v-.24Z"/>
          <path class="cls-5" d="M57.22,11.05c0,.07,.03,.12,.06,.15,.05,.06,.14,.09,.26,.09,.07,0,.13,0,.18-.02,.09-.03,.13-.09,.13-.17,0-.05-.02-.09-.06-.11-.04-.03-.11-.05-.2-.07l-.16-.03c-.16-.03-.26-.07-.32-.11-.1-.07-.15-.17-.15-.32,0-.13,.05-.24,.15-.33,.1-.09,.24-.13,.43-.13,.16,0,.29,.04,.4,.12,.11,.08,.17,.2,.17,.36h-.29c0-.09-.04-.15-.12-.19-.05-.02-.11-.04-.18-.04-.08,0-.15,.02-.19,.05-.05,.03-.07,.08-.07,.13,0,.05,.02,.09,.07,.12,.03,.02,.1,.04,.19,.06l.26,.06c.11,.03,.2,.06,.25,.11,.09,.07,.13,.17,.13,.3s-.05,.25-.16,.33c-.1,.09-.25,.13-.43,.13l-.06,.09s.04,0,.05,0c0,0,.02,0,.03,0,.05,0,.1,.01,.13,.04,.03,.03,.05,.06,.05,.11,0,.06-.02,.11-.07,.14-.05,.04-.11,.05-.19,.05-.03,0-.07,0-.12-.02-.02,0-.05-.02-.09-.03l.04-.09s.06,.02,.08,.02c.03,0,.06,.01,.08,.01,.04,0,.07,0,.09-.03,.02-.02,.03-.03,.03-.05,0-.03,0-.05-.03-.06-.02-.01-.04-.02-.06-.02-.01,0-.03,0-.04,0-.01,0-.03,0-.05,.01l-.04-.04,.1-.15c-.13,0-.24-.04-.36-.13s-.17-.21-.17-.36h.29Z"/>
          <path class="cls-5" d="M58.36,10.04h.31v1.2h.73v.26h-1.04v-1.47Z"/>
          <path class="cls-5" d="M60.67,10.3h-.76v.31h.7v.25h-.7v.38h.8v.26h-1.1v-1.47h1.06v.26Z"/>
          <path class="cls-5" d="M62.03,10.04v.26h-.44v1.21h-.31v-1.21h-.44v-.26h1.19Z"/>
          <path class="cls-5" d="M62.49,11.51h-.3v-1.47h.3v1.47Zm-.28-1.84h.26v.24h-.26v-.24Z"/>
          <path class="cls-5" d="M62.91,10.19c.12-.12,.27-.18,.45-.18,.24,0,.42,.08,.54,.24,.06,.09,.1,.18,.1,.27h-.31c-.02-.07-.04-.12-.08-.16-.05-.06-.14-.1-.24-.1s-.2,.04-.26,.13c-.06,.09-.09,.22-.09,.38s.03,.29,.1,.37c.07,.08,.15,.12,.25,.12s.19-.04,.24-.11c.03-.04,.06-.09,.08-.17h.3c-.03,.16-.09,.29-.2,.39-.11,.1-.25,.15-.41,.15-.21,0-.37-.07-.49-.2-.12-.14-.18-.32-.18-.56,0-.26,.07-.45,.2-.59Z"/>
          <path class="cls-5" d="M64.52,11.51h-.3v-1.47h.3v1.47Zm-.28-1.84h.26v.24h-.26v-.24Z"/>
          <path class="cls-5" d="M65.03,11.05c0,.07,.03,.12,.06,.15,.05,.06,.14,.09,.26,.09,.07,0,.13,0,.18-.02,.09-.03,.13-.09,.13-.17,0-.05-.02-.09-.06-.11-.04-.03-.11-.05-.2-.07l-.16-.03c-.16-.03-.26-.07-.32-.11-.1-.07-.15-.17-.15-.32,0-.13,.05-.24,.15-.33,.1-.09,.24-.13,.43-.13,.16,0,.29,.04,.4,.12,.11,.08,.17,.2,.17,.36h-.29c0-.09-.04-.15-.12-.19-.05-.02-.11-.04-.18-.04-.08,0-.15,.02-.19,.05-.05,.03-.07,.08-.07,.13,0,.05,.02,.09,.07,.12,.03,.02,.1,.04,.19,.06l.26,.06c.11,.03,.2,.06,.25,.11,.09,.07,.13,.17,.13,.3s-.05,.25-.16,.33c-.1,.09-.25,.13-.44,.13s-.34-.04-.46-.13-.17-.21-.17-.36h.29Z"/>
          <path class="cls-5" d="M66.45,11.51h-.3v-1.47h.3v1.47Zm-.28-1.84h.26v.24h-.26v-.24Z"/>
          <path class="cls-5" d="M67.65,10.04h.35l.52,1.47h-.33l-.1-.3h-.54l-.1,.3h-.32l.52-1.47Zm-.02,.91h.38l-.19-.58-.19,.58Z"/>
          <path class="cls-5" d="M68.67,11.21h.3v.3h-.3v-.3Z"/>
          <path class="cls-5" d="M69.49,11.05c0,.07,.03,.12,.06,.15,.05,.06,.14,.09,.26,.09,.07,0,.13,0,.18-.02,.09-.03,.13-.09,.13-.17,0-.05-.02-.09-.06-.11-.04-.03-.11-.05-.2-.07l-.16-.03c-.16-.03-.26-.07-.32-.11-.1-.07-.15-.17-.15-.32,0-.13,.05-.24,.15-.33,.1-.09,.24-.13,.43-.13,.16,0,.29,.04,.4,.12,.11,.08,.17,.2,.17,.36h-.29c0-.09-.04-.15-.12-.19-.05-.02-.11-.04-.18-.04-.08,0-.15,.02-.19,.05-.05,.03-.07,.08-.07,.13,0,.05,.02,.09,.07,.12,.03,.02,.1,.04,.19,.06l.26,.06c.11,.03,.2,.06,.25,.11,.09,.07,.13,.17,.13,.3s-.05,.25-.16,.33c-.1,.09-.25,.13-.43,.13l-.06,.09s.04,0,.05,0c0,0,.02,0,.03,0,.05,0,.1,.01,.13,.04,.03,.03,.05,.06,.05,.11,0,.06-.02,.11-.07,.14-.05,.04-.11,.05-.19,.05-.03,0-.07,0-.12-.02-.02,0-.05-.02-.09-.03l.04-.09s.06,.02,.08,.02c.03,0,.06,.01,.08,.01,.04,0,.07,0,.09-.03,.02-.02,.03-.03,.03-.05,0-.03,0-.05-.03-.06-.02-.01-.04-.02-.06-.02-.01,0-.03,0-.04,0-.01,0-.03,0-.05,.01l-.04-.04,.1-.15c-.13,0-.24-.04-.36-.13s-.17-.21-.17-.36h.29Z"/>
          <path class="cls-5" d="M70.6,11.21h.3v.3h-.3v-.3Z"/>
        </g>
      </g>
    </g>
  </g>
</svg>