<?xml version="1.0" encoding="UTF-8"?>
<svg id="Layer_2" data-name="Layer 2" xmlns="http://www.w3.org/2000/svg" viewBox="0 0 66.8 66.8">
  <defs>
    <style>
      .cls-1, .cls-2 {
        fill: #fff;
      }

      .cls-2, .cls-3 {
        fill-rule: evenodd;
      }

      .cls-3, .cls-4 {
        fill: #00539b;
      }
    </style>
  </defs>
  <g id="Layer_1-2" data-name="Layer 1">
    <g>
      <path class="cls-4" d="M64.23,33.4c0,17.02-13.8,30.82-30.82,30.82S2.58,50.42,2.58,33.4,16.38,2.58,33.4,2.58s30.82,13.8,30.82,30.82"/>
      <path class="cls-4" d="M33.4,0C14.95,0,0,14.95,0,33.4s14.95,33.4,33.4,33.4,33.4-14.96,33.4-33.4S51.85,0,33.4,0M65.29,33.4c0,17.61-14.28,31.89-31.89,31.89S1.51,51.01,1.51,33.4,15.79,1.51,33.4,1.51s31.89,14.28,31.89,31.89"/>
      <path class="cls-1" d="M33.4,5.23c-2.95,0-5.34,2.39-5.34,5.34s2.39,5.34,5.34,5.34,5.34-2.39,5.34-5.34-2.39-5.34-5.34-5.34M33.38,16.46h0s-24.59,0-24.59,0l7.35,9.39h17.25c4.11,0,7.45,3.34,7.45,7.45s-3.33,7.45-7.45,7.45-7.45-3.33-7.45-7.45c0-2.69,1.42-5.04,3.56-6.35h-11.71c-.8,1.96-1.25,4.1-1.25,6.35,0,9.3,7.54,16.84,16.84,16.84s16.84-7.54,16.84-16.84-7.54-16.84-16.84-16.84M57.99,16.46l-7.35,9.39h-.93c-1.98-4.33-5.63-7.74-10.13-9.39h18.41Z"/>
      <path class="cls-3" d="M29.2,47.08l1.28-3.8-.32-.11c-.38.52-.45.56-1.25.42l-.12.37.86.29-.9,2.68.45.15Z"/>
      <path class="cls-3" d="M32.55,46.08c.08.11.13.32.11.54-.02.21-.14.43-.41.57-.16.07-.29.09-.56.08-.24-.07-.46-.19-.54-.31-.1-.13-.14-.32-.13-.52.02-.2.08-.39.19-.49.17-.16.43-.24.68-.22.26.02.51.13.66.36M32.58,44.25c.2.2.27.61,0,.89-.14.15-.41.21-.66.17-.25-.04-.48-.19-.55-.45-.05-.21-.02-.52.23-.7.15-.1.35-.13.53-.1.19.02.35.09.45.19M31.37,43.77c-.49.27-.59.84-.48,1.21.05.17.18.29.37.46-.23.1-.4.19-.49.33-.15.14-.26.4-.27.68-.02.28.06.59.27.83.22.25.54.4.88.45.34.05.68-.01.93-.16.36-.21.54-.52.6-.81.05-.3-.02-.6-.15-.78-.08-.16-.21-.33-.36-.39.14-.07.3-.19.39-.29.28-.25.33-.97-.07-1.34-.25-.21-.56-.31-.84-.34-.28-.03-.55.03-.76.15"/>
      <path class="cls-3" d="M35.58,45.93c.1.09.2.28.23.5.03.21-.04.45-.27.65-.14.1-.26.15-.53.21-.25-.02-.49-.08-.6-.17-.13-.1-.22-.28-.25-.47-.03-.2,0-.4.07-.53.12-.2.36-.33.61-.38.26-.04.53.01.73.19M35.18,44.14c.24.15.4.53.21.86-.1.18-.35.3-.61.32-.25.02-.51-.07-.63-.3-.1-.19-.14-.5.06-.73.12-.13.31-.21.49-.22.18-.02.37,0,.48.08M33.89,43.95c-.41.38-.38.95-.18,1.29.09.15.24.24.47.36-.2.15-.35.28-.4.44-.11.17-.16.45-.11.72.05.28.2.56.45.75.27.2.62.26.96.23.34-.03.66-.17.87-.37.3-.29.4-.63.39-.93-.02-.31-.16-.58-.33-.72-.12-.14-.28-.27-.45-.29.12-.11.24-.26.31-.37.21-.31.09-1.03-.38-1.29-.3-.14-.61-.17-.89-.14-.28.03-.53.16-.7.32"/>
      <path class="cls-3" d="M36.87,45.42c.11-.28.27-.47.59-.59.43-.15.95-.01,1.15.74.1.44-.09.78-.47.96-.64.3-.95-.18-1.05-.3l-.48.17c.06.09.3.73,1.17.69.17,0,.36-.05.54-.12.18-.09.35-.21.49-.36.28-.31.43-.77.25-1.38-.21-.7-.71-.95-1.19-.95-.24-.03-.44.06-.52.09-.2.07-.44.17-.58.46l-.23-1.1,1.58-.57-.17-.47-1.95.7.45,2.16.43-.15Z"/>
      <path class="cls-2" d="M14.21,27.54l-.2.65.72.22.2-.65-.72-.22ZM8.6,25.83l-.2.65,5.04,1.54.2-.65-5.03-1.54Z"/>
      <polygon class="cls-2" points="12.53 29.04 12.17 31.94 8.5 28.32 7.92 28.25 7.43 32.23 8.03 32.3 8.41 29.18 12.05 32.79 12.66 32.86 13.12 29.11 12.53 29.04"/>
      <polygon class="cls-2" points="7.8 37.3 12.24 38.13 8 38.73 8.1 39.41 13.31 38.68 13.18 37.73 8.54 36.85 12.76 34.72 12.63 33.77 7.41 34.51 7.51 35.19 11.74 34.6 7.71 36.62 7.8 37.3"/>
      <path class="cls-2" d="M14.39,39.75l.22.64.71-.24-.22-.64-.71.24ZM8.86,41.65l.22.64,4.98-1.71-.22-.64-4.98,1.71Z"/>
      <path class="cls-2" d="M15.12,44.25c.2.37.42.99-.4,1.34-.63.27-.95-.07-1.17-.46l-.82-1.48,1.58-.88.82,1.48ZM9.89,44.44l.33.59,1.98-1.1.84,1.51c.54.97-.46,1.17-.98,1.52-.17.12-.34.25-.51.46l.4.71.15-.08c.04-.29.24-.44.81-.77.75-.43.84-.55.88-1.19.59.27.91.33,1.49-.03,1.01-.64.76-1.4.36-2.12l-1.14-2.06-4.6,2.55Z"/>
      <polygon class="cls-2" points="15.97 52.59 16.47 53.05 19.59 49.58 20.87 50.73 21.27 50.28 18.2 47.52 17.8 47.97 19.09 49.13 15.97 52.59"/>
      <path class="cls-2" d="M22.45,50.22l.58.36.4-.64-.58-.36-.4.64ZM19.34,55.19l.58.36,2.79-4.47-.58-.36-2.79,4.46Z"/>
      <path class="cls-2" d="M27.07,54.89c.04-.44,0-.91-.19-1.34-.13-.29-.55-.8-1.16-1.05-.61-.24-1.27-.16-1.55-.04-.79.31-1.32,1.06-1.61,1.74-.29.69-.4,1.6-.05,2.37.13.28.54.8,1.15,1.05.61.24,1.27.16,1.56.05.56-.23,1-.66,1.3-1.15l-.64-.26c-.22.33-.5.6-.77.75-.38.21-.83.21-1.19.06-.39-.16-.72-.47-.86-.89-.15-.46-.11-1.13.15-1.72.23-.6.66-1.11,1.09-1.34.39-.21.85-.2,1.24-.04.37.15.68.45.82.88.06.2.08.43.08.68l.65.26Z"/>
      <path class="cls-2" d="M30.52,54.73l.45,2.39-1.62-.23,1.17-2.16ZM29.09,57.43l1.99.28.31,1.63.75.11-1.1-5.47-.82-.11-2.63,4.95.71.1.78-1.48Z"/>
      <path class="cls-2" d="M36.24,54.52c.42-.05,1.07-.02,1.09.88.01.68-.42.86-.86.91l-1.68.21-.22-1.79,1.68-.21ZM34.46,59.44l.67-.08-.28-2.24,1.71-.21c1.1-.14.91.87,1.05,1.48.05.2.1.41.23.64l.81-.1-.02-.17c-.26-.14-.32-.38-.41-1.04-.12-.86-.19-.99-.77-1.26.47-.45.65-.72.53-1.4-.21-1.17-1.02-1.23-1.83-1.13l-2.34.29.64,5.23Z"/>
      <polygon class="cls-2" points="40.97 58.37 44.49 57.01 44.28 56.46 41.39 57.57 40.74 55.88 43.41 54.85 43.19 54.3 40.52 55.32 39.93 53.77 42.71 52.7 42.49 52.14 39.08 53.45 40.97 58.37"/>
      <polygon class="cls-2" points="47.54 55.31 48.11 54.94 45.57 51.03 47.01 50.09 46.69 49.59 43.22 51.84 43.55 52.34 45 51.4 47.54 55.31"/>
      <path class="cls-2" d="M50.47,46.18c.28-.38.71-.66,1.17-.72.51-.06,1.16.13,1.66.53.52.38.89.95.97,1.45.07.46-.08.95-.37,1.33-.28.38-.71.66-1.17.72-.51.06-1.16-.13-1.66-.53-.52-.38-.89-.95-.97-1.45-.08-.46.08-.95.36-1.32M49.99,45.82c-.43.59-.56,1.29-.54,1.62.06.89.62,1.62,1.21,2.07.59.45,1.45.79,2.33.6.33-.07.96-.39,1.41-.97.43-.59.56-1.29.54-1.62-.06-.89-.62-1.63-1.21-2.07-.6-.44-1.45-.79-2.33-.6-.32.07-.96.39-1.41.97"/>
      <path class="cls-2" d="M53.34,41.3c.18-.43.52-.81,1.09-.9.46-.08.96.06,1.39.25.42.19.77.43.94.55.22.17.51.65.52.9,0,.23-.02.36-.1.55l-.55,1.37-3.77-1.52.48-1.19ZM57.83,42.65c.08-.25.1-.78-.27-1.43-.37-.65-1.05-1.1-1.96-1.37-1.3-.4-2.37.13-2.78,1.16l-.76,1.88,4.88,1.97.9-2.22Z"/>
      <path class="cls-2" d="M54.92,36.2l2.39-.45-.23,1.62-2.16-1.17ZM57.61,37.63l.28-1.99,1.63-.31.11-.75-5.47,1.1-.11.82,4.95,2.63.1-.71-1.48-.78Z"/>
      <path class="cls-2" d="M55.44,29.11c-.24,0-.9.13-1.25.9-.15.34-.17.86-.12,1.3.16,1.27,1.07,1.74,1.91,1.55.65-.14.83-.57.88-.81.15-.73.11-.38.18-1.11.04-.36.08-.8.2-1.13.35-.68.99-.49,1.32-.19.18.17.28.44.34.71.05.26.07.53.06.69-.05.92-.76,1.13-1.07,1.16l.08.62c.41-.07.74-.12,1.12-.52.49-.53.52-1.06.45-1.75-.1-1.13-.9-2.03-1.95-1.85-.51.08-.96.56-1.06,1.03-.06.44-.13.89-.19,1.33-.02.36-.08.63-.16.83-.26.64-1.39.56-1.54-.64-.03-.26-.07-.51.1-.89.2-.42.48-.55.79-.57l-.08-.65Z"/>
      <rect class="cls-1" x="53.41" y="26.69" width="5.26" height=".68" transform="translate(-5.09 15.45) rotate(-15.02)"/>
    </g>
  </g>
</svg>