<?xml version="1.0" encoding="UTF-8"?>
<svg id="Layer_2" data-name="Layer 2" xmlns="http://www.w3.org/2000/svg" viewBox="0 0 56 23.38">
  <defs>
    <style>
      .cls-1 {
        fill: #fff;
      }

      .cls-2 {
        fill: #feffff;
      }

      .cls-3 {
        fill: #56a1d5;
      }
    </style>
  </defs>
  <g id="_2022_son" data-name="2022 son">
    <g>
      <path class="cls-3" d="M8.62,7.3c-.08-.07-.13-.1-.17-.14-.51-.51-1.03-1.02-1.54-1.54-.31-.31-.32-.55-.07-.91,.21-.3,.42-.6,.63-.9,.29-.42,.39-.89,.32-1.39-.07-.47-.34-.81-.75-1.04-.3-.17-.62-.25-.96-.27-.4-.03-.79-.01-1.18,.1-.8,.23-1.22,.79-1.22,1.64,0,1.04,0,2.07,0,3.11,0,.08,0,.15,0,.23,.01,.45-.21,.63-.61,.66-.16,.02-.32,0-.48-.03-.3-.06-.46-.24-.48-.55,0-.08,0-.15,0-.23,0-1.92,0-3.84,0-5.76,0-.3-.03-.27,.27-.27,1.79,0,3.59,0,5.38,0,.08,0,.17,0,.25,0,.33,.06,.56,.31,.59,.66,0,.07,0,.14,0,.21,0,2.05,0,4.1,0,6.15v.26Z"/>
      <path d="M17.88,10.89c0,.9,0,1.8,0,2.7,0,.36,0,.72,0,1.08,0,.16,0,.17-.16,.17-.34,0-.69,0-1.03,0-.13,0-.15-.05-.15-.16,0-.34,0-.69,0-1.03,0-1.58,0-3.16,0-4.74,0-.05,0-.11,0-.16,0-.08,.03-.11,.11-.1,.17,0,.34,0,.5,0,.31,0,.61,0,.92,0,.15,0,.21,.05,.27,.17,.45,.96,.91,1.91,1.37,2.87,.16,.34,.32,.67,.48,1.01,.02,.04,.04,.08,.1,.11,0-.06,0-.11,0-.17,0-1.24,0-2.49,0-3.73,0-.06,0-.12,0-.18,0-.03,.05-.08,.08-.08,.39,0,.78,0,1.17,0,.03,0,.06,.05,.07,.09,.01,.04,0,.09,0,.14,0,1.91,0,3.81,0,5.72,0,.02,0,.03,0,.05,0,.19,0,.19-.2,.19-.44,0-.87,0-1.31,0-.16,0-.24-.04-.31-.19-.57-1.17-1.16-2.33-1.74-3.5-.05-.09-.1-.18-.14-.27-.01,0-.03,0-.04,.01Z"/>
      <path d="M25.45,20.04c.08,.04,.15,.07,.21,.1,.41,.21,.64,.54,.65,1,0,.33,.01,.66-.04,.98-.08,.54-.42,.89-.94,1.04-.25,.07-.53,.1-.79,.1-.83,.01-1.66,0-2.5,0-.17,0-.17,0-.17-.18,0-1.94,0-3.89,0-5.83,0-.18,0-.18,.17-.18,.78,0,1.56,0,2.34,0,.28,0,.57,.04,.83,.12,.51,.14,.83,.53,.86,1.06,.02,.31,.02,.63,0,.94-.01,.3-.15,.54-.41,.7-.07,.05-.14,.09-.22,.13Zm-1.54,.67h0c-.17,0-.33,0-.5,0-.1,0-.13,.04-.13,.13,0,.4,0,.79,0,1.19,0,.1,.04,.13,.13,.13,.26,0,.52,0,.78,0,.12,0,.24-.02,.36-.05,.26-.07,.35-.18,.36-.46,0-.12,0-.24,0-.36,.02-.36-.17-.54-.54-.56-.15,0-.3,0-.46,0Zm-.63-1.8c0,.2,0,.4,0,.59,0,.04,.04,.11,.07,.11,.33,0,.67,0,1-.02,.2-.02,.32-.18,.33-.38,0-.17,0-.35,0-.52,0-.3-.14-.44-.45-.46-.27-.01-.55,0-.82-.01-.12,0-.14,.04-.14,.15,0,.18,0,.37,0,.55Z"/>
      <path class="cls-3" d="M8.14,8.58c-.08,0-.16,.02-.24,.02-2.4,0-4.79,0-7.19,0C.35,8.62,0,8.31,0,7.89,.01,5.5,.01,3.12,0,.73,0,.34,.3-.04,.83,0c.08,0,.11,.04,.11,.11,0,.06,0,.12,0,.18,0,1.98,0,3.96,0,5.95,0,.16,.01,.32,.05,.47,.11,.42,.34,.75,.74,.94,.75,.35,1.52,.36,2.28,.04,.57-.24,.84-.7,.87-1.31,0-.04,0-.08,0-.11,.01-1.12,.02-2.24,.03-3.36,0-.02,0-.05,0-.07,.01-.37,.21-.6,.58-.64,.18-.02,.37-.02,.55,0,.38,.04,.62,.38,.55,.75-.06,.32-.21,.58-.41,.83-.13,.16-.26,.32-.37,.49-.5,.78-.45,1.49,.23,2.17,.64,.64,1.29,1.28,1.94,1.91,.06,.06,.14,.1,.2,.15-.01,.03-.03,.06-.04,.09Z"/>
      <path d="M27.05,20.17c0-.39,0-.78,0-1.17-.02-.98,.52-1.65,1.43-1.89,.7-.19,1.41-.19,2.09,.05,.84,.29,1.27,.91,1.27,1.8,0,.78-.01,1.57,0,2.35,.02,1.13-.63,1.75-1.55,1.96-.63,.14-1.27,.14-1.9-.06-.9-.28-1.35-.9-1.35-1.84,0-.4,0-.81,0-1.21Zm3.39,.02c0-.4,0-.81,0-1.21,0-.35-.19-.59-.52-.69-.31-.09-.62-.08-.93,0-.33,.09-.52,.32-.53,.66,0,.82,0,1.64,0,2.47,0,.34,.2,.57,.53,.66,.28,.08,.57,.08,.86,.01,.39-.09,.58-.33,.59-.73,0-.39,0-.78,0-1.16Z"/>
      <path d="M21.04,20.19c0,.37,0,.75,0,1.12,.03,1.1-.59,1.76-1.56,1.97-.64,.14-1.29,.14-1.92-.07-.62-.2-1.08-.59-1.24-1.25-.04-.17-.07-.35-.07-.52,0-.81,0-1.62,0-2.42-.02-1.03,.56-1.67,1.44-1.91,.7-.18,1.41-.18,2.1,.06,.83,.29,1.26,.91,1.26,1.79,0,.41,0,.82,0,1.23Zm-1.41,0c0-.4,0-.81,0-1.21,0-.37-.21-.62-.56-.7-.29-.07-.58-.07-.86,0-.35,.08-.55,.33-.56,.69,0,.81,0,1.61,0,2.42,0,.36,.2,.6,.55,.69,.27,.07,.54,.07,.82,.01,.42-.09,.61-.33,.61-.75,0-.38,0-.76,0-1.14Z"/>
      <path d="M14.58,20.04c.07,.03,.12,.05,.17,.07,.44,.21,.7,.56,.7,1.06,0,.65,0,1.3,0,1.94,0,.12-.03,.16-.15,.16-.37,0-.73,0-1.1,0-.16,0-.16,0-.16-.17,0-.58,0-1.16,0-1.74,0-.07,0-.14,0-.21-.02-.23-.13-.36-.35-.42-.08-.02-.17-.03-.25-.03-.28,0-.56,0-.85,0-.16,0-.16,0-.16,.16,0,.71,0,1.42,0,2.13,0,.05,0,.11,0,.16,0,.09-.03,.12-.12,.12-.39,0-.78,0-1.17,0-.09,0-.15-.02-.13-.13,0-.04,0-.08,0-.11,0-1.9,0-3.8,0-5.69,0-.29-.04-.25,.26-.25,.75,0,1.5,0,2.24,0,.26,0,.53,.03,.79,.1,.56,.14,.89,.56,.92,1.14,.01,.26,0,.52,0,.78,0,.39-.18,.69-.53,.87-.03,.02-.07,.04-.12,.07Zm-2.15-1.15c0,.2,0,.4,0,.59,0,.07,0,.12,.09,.12,.3,0,.61,0,.91-.01,.26-.02,.4-.19,.41-.46,0-.15,0-.3,0-.46,0-.3-.14-.45-.45-.46-.28-.01-.56,0-.85,0-.11,0-.13,.04-.12,.14,0,.18,0,.37,0,.55Z"/>
      <path d="M39.78,11.6c.1,.04,.18,.07,.25,.11,.38,.21,.61,.53,.62,.97,.01,.67,0,1.34,0,2.01,0,.12-.05,.13-.15,.13-.37,0-.73,0-1.1,0-.16,0-.16,0-.16-.17,0-.59,0-1.17,0-1.76,0-.08,0-.15,0-.23-.02-.18-.12-.3-.28-.36-.09-.03-.19-.05-.29-.05-.28,0-.56,0-.85,0-.19,0-.19,0-.19,.18,0,.71,0,1.42,0,2.13,0,.05,0,.09,0,.14,0,.09-.03,.12-.12,.12-.39,0-.78,0-1.17,0-.09,0-.15-.02-.13-.13,0-.05,0-.09,0-.14,0-1.89,0-3.78,0-5.67,0-.05,0-.11,0-.16,0-.07,.03-.1,.1-.09,.02,0,.05,0,.07,0,.82,0,1.65,0,2.47,0,.2,0,.41,.04,.61,.08,.61,.15,.94,.56,.96,1.19,0,.24,0,.49,0,.73,0,.38-.17,.67-.51,.86-.02,.01-.04,.02-.06,.03-.02,.01-.04,.02-.08,.05Zm-2.15-1.15c0,.2,0,.4,0,.59,0,.09,.03,.12,.12,.12,.28,0,.57,0,.85,0,.29-.01,.45-.19,.45-.47,0-.15,0-.31,0-.46,0-.29-.12-.43-.41-.45-.3-.02-.59-.01-.89-.02-.09,0-.12,.04-.12,.12,0,.19,0,.38,0,.57Z"/>
      <path d="M10.77,11.02c0-.72,0-1.45,0-2.17,0-.22-.02-.19,.2-.19,.33,0,.66,0,.98,0,.23,0,.21-.03,.21,.2,0,.84,0,1.68,0,2.52,0,.49,0,.98,0,1.46,0,.07,0,.14,0,.21,.05,.37,.22,.57,.59,.62,.25,.03,.5,.02,.75-.02,.31-.05,.47-.26,.51-.57,.01-.09,0-.18,0-.27,0-1.29,0-2.58,0-3.87,0-.05,0-.11,0-.16-.01-.11,.04-.13,.13-.13,.38,0,.76,0,1.14,0,.08,0,.13,.02,.12,.11,0,.04,0,.08,0,.11,0,1.38,0,2.76,0,4.14,0,.38-.08,.74-.3,1.06-.29,.44-.72,.67-1.22,.77-.57,.12-1.15,.12-1.72-.03-.92-.23-1.42-.88-1.42-1.82,0-.66,0-1.33,0-1.99Z"/>
      <path d="M31.22,11.73c0-.96,0-1.92,0-2.88,0-.21-.02-.2,.2-.2,1.18,0,2.35,0,3.53,0,.17,0,.18-.02,.18,.17,0,.29,0,.58,0,.87,0,.22,.02,.2-.19,.2-.66,0-1.33,0-1.99,0-.05,0-.09,0-.14,0-.16,0-.17,0-.17,.16,0,.27,0,.55,0,.82,0,.12,.03,.16,.15,.15,.63,0,1.25,0,1.88,0,.05,0,.11,0,.16,0,.08,0,.11,.02,.11,.1,0,.34,0,.69,0,1.03,0,.1-.05,.11-.13,.11-.34,0-.69,0-1.03,0-.32,0-.64,0-.96,0-.18,0-.18,0-.18,.17,0,.34,0,.67,0,1.01,0,.16,0,.16,.16,.16,.69,0,1.37,0,2.06,0,.05,0,.09,0,.14,0,.1-.01,.13,.03,.13,.13,0,.24,0,.49,0,.73,0,.12,.03,.28-.03,.35-.06,.06-.23,.03-.35,.03-1.08,0-2.17,0-3.25,0-.05,0-.11,0-.16,0-.08,0-.11-.03-.11-.11,0-.05,0-.11,0-.16,0-.95,0-1.89,0-2.84Z"/>
      <path d="M27.78,13.49c.08-.29,.15-.57,.23-.86,.34-1.27,.67-2.53,1.01-3.8,.05-.18,.05-.18,.24-.18,.4,0,.81,0,1.23,0-.02,.08-.03,.14-.05,.21-.54,1.93-1.09,3.85-1.63,5.78-.06,.2-.06,.2-.26,.2-.53,0-1.07,0-1.6,0-.19,0-.19,0-.24-.19-.55-1.96-1.11-3.91-1.66-5.87-.01-.04-.01-.07-.02-.13,.45,0,.89,0,1.33,0,.11,0,.11,.08,.13,.15,.16,.58,.31,1.16,.46,1.74,.25,.93,.49,1.85,.74,2.78,.01,.05,.03,.1,.05,.15,.01,0,.02,0,.03,.01Z"/>
      <path d="M51.55,14.84c-.45,0-.88,0-1.31,0-.11,0-.14-.05-.16-.14-.24-.91-.48-1.81-.72-2.71-.17-.65-.35-1.31-.53-2-.03,.07-.06,.11-.07,.15-.4,1.48-.79,2.97-1.19,4.46-.01,.04-.03,.09-.04,.13,0,.08-.05,.12-.13,.12-.43,0-.87,0-1.32,0,.02-.08,.03-.15,.05-.21,.54-1.92,1.08-3.84,1.63-5.76,0-.03,.02-.06,.03-.09,.01-.1,.06-.14,.17-.13,.27,0,.55,0,.82,0,.29,0,.58,0,.87,0,.14,0,.18,.04,.22,.17,.24,.85,.48,1.7,.72,2.55,.31,1.11,.62,2.21,.94,3.32,.01,.04,.02,.09,.04,.16Z"/>
      <path d="M45.59,10.03c-.3-.04-.56-.09-.82-.11-.39-.03-.78-.06-1.16-.07-.1,0-.2,.01-.29,.03-.22,.05-.31,.15-.33,.38,0,.13,0,.26,0,.39,0,.19,.09,.32,.27,.38,.22,.07,.45,.13,.68,.19,.31,.09,.63,.17,.94,.28,.17,.06,.33,.16,.48,.26,.18,.13,.3,.32,.33,.53,.07,.52,.1,1.05-.02,1.57-.1,.43-.35,.73-.75,.88-.2,.07-.41,.13-.62,.16-.8,.11-1.6,.07-2.38-.17-.24-.07-.21-.04-.21-.28,0-.31,0-.62,0-.94,.31,.07,.6,.14,.89,.2,.38,.08,.77,.09,1.16,.07,.08,0,.15-.02,.23-.04,.21-.04,.32-.17,.34-.38,.01-.17,0-.35,0-.52,0-.18-.13-.28-.28-.33-.23-.08-.47-.13-.7-.2-.31-.09-.63-.16-.94-.27-.48-.16-.74-.51-.78-1.02-.04-.4-.05-.79,0-1.18,.07-.55,.38-.91,.91-1.04,.27-.07,.55-.11,.83-.13,.71-.04,1.42,.03,2.12,.17,.08,.02,.12,.04,.12,.13,0,.35,0,.7,0,1.07Z"/>
      <path d="M41.3,18.46c-.29-.04-.55-.09-.81-.11-.39-.03-.78-.06-1.16-.07-.09,0-.18,.01-.27,.03-.24,.05-.34,.15-.36,.4,0,.07,0,.14,0,.21,0,.41,.06,.49,.47,.61,.39,.11,.78,.2,1.17,.31,.19,.06,.37,.14,.55,.23,.32,.16,.51,.43,.54,.79,.04,.45,.06,.9-.02,1.34-.09,.53-.4,.86-.9,1.02-.45,.15-.91,.17-1.38,.16-.51,0-1.02-.07-1.51-.23-.2-.06-.2-.07-.2-.26,0-.31,0-.62,0-.96,.24,.06,.46,.11,.68,.16,.44,.1,.89,.14,1.34,.12,.02,0,.05,0,.07,0,.41-.04,.55-.18,.56-.6,.01-.51-.07-.63-.56-.76-.38-.1-.75-.18-1.13-.28-.12-.03-.23-.08-.34-.13-.38-.16-.61-.44-.67-.85-.07-.48-.09-.95,0-1.43,.08-.44,.34-.75,.77-.88,.27-.08,.56-.14,.85-.16,.75-.06,1.49,.02,2.23,.16,.07,.01,.11,.04,.11,.12,0,.36,0,.71,0,1.08Z"/>
      <path d="M36.9,18.32c-.1,0-.19,0-.28,0-.45,0-.9,.01-1.35,.02,0,.45-.02,.91-.03,1.36,0,1.1,0,2.21,0,3.31,0,.05,0,.11,0,.16,0,.07-.03,.09-.09,.09-.4,0-.79,0-1.19,0-.08,0-.11-.02-.11-.1,0-.05,0-.11,0-.16,0-1.47,0-2.94,0-4.41,0-.32,.04-.27-.28-.27-.41,0-.82,0-1.24,0-.12,0-.16-.03-.16-.15,0-.32,0-.64,0-.96,0-.1,.03-.14,.13-.13,.05,0,.09,0,.14,0,1.4,0,2.81,0,4.21,0h.24v1.24Z"/>
      <path d="M52.15,11.74c0-.97,0-1.94,0-2.9,0-.19-.02-.19,.18-.19,.35,0,.7,0,1.05,0,.16,0,.16,0,.16,.16,0,.82,0,1.65,0,2.47,0,.71,0,1.42,0,2.13,0,.18,0,.18,.19,.18,.69,0,1.39,0,2.08,0,.19,0,.18-.01,.18,.19,0,.3,0,.61,0,.91,0,.11-.04,.14-.14,.14-1.18,0-2.37,0-3.55,0-.16,0-.16,0-.16-.16,0-.98,0-1.95,0-2.93Z"/>
      <path d="M24.15,11.74c0,.97,0,1.94,0,2.9,0,.19,0,.2-.2,.2-.34,0-.67,0-1.01,0-.2,0-.2,0-.2-.2,0-.81,0-1.62,0-2.42,0-1.11,0-2.21,0-3.32,0-.05,0-.11,0-.16,0-.07,.03-.09,.1-.09,.4,0,.81,0,1.21,0,.09,0,.1,.04,.1,.11,0,.27,0,.53,0,.8,0,.72,0,1.45,0,2.17Z"/>
      <path class="cls-1" d="M23.91,20.71c.15,0,.3,0,.46,0,.37,.02,.56,.2,.54,.56,0,.12,0,.24,0,.36,0,.27-.09,.38-.36,.46-.12,.03-.24,.05-.36,.05-.26,0-.52,0-.78,0-.1,0-.13-.03-.13-.13,0-.4,0-.79,0-1.19,0-.1,.03-.14,.13-.13,.17,0,.33,0,.5,0h0Z"/>
      <path class="cls-1" d="M23.28,18.91c0-.18,0-.37,0-.55,0-.1,.02-.15,.14-.15,.27,.01,.55,0,.82,.01,.31,.01,.44,.15,.45,.46,0,.17,0,.35,0,.52-.01,.2-.13,.37-.33,.38-.33,.03-.67,.02-1,.02-.02,0-.07-.07-.07-.11,0-.2,0-.4,0-.59Z"/>
      <path class="cls-1" d="M30.44,20.19c0,.39,0,.78,0,1.16,0,.4-.19,.64-.59,.73-.29,.07-.58,.06-.86-.01-.33-.09-.53-.31-.53-.66-.01-.82,0-1.64,0-2.47,0-.34,.2-.57,.53-.66,.31-.08,.62-.08,.93,0,.34,.09,.52,.34,.52,.69,0,.4,0,.81,0,1.21Z"/>
      <path class="cls-1" d="M19.63,20.19c0,.38,0,.76,0,1.14,0,.43-.19,.67-.61,.75-.27,.06-.55,.06-.82-.01-.35-.09-.55-.33-.55-.69,0-.81,0-1.61,0-2.42,0-.36,.21-.6,.56-.69,.29-.07,.57-.07,.86,0,.36,.08,.56,.34,.56,.7,0,.4,0,.81,0,1.21Z"/>
      <path class="cls-1" d="M12.43,18.89c0-.18,0-.37,0-.55,0-.09,.02-.14,.12-.14,.28,0,.56,0,.85,0,.3,.01,.44,.16,.45,.46,0,.15,0,.3,0,.46,0,.27-.15,.44-.41,.46-.3,.02-.61,0-.91,.01-.09,0-.09-.05-.09-.12,0-.2,0-.4,0-.59Z"/>
      <path class="cls-2" d="M37.63,10.46c0-.19,0-.38,0-.57,0-.09,.03-.12,.12-.12,.3,0,.6,0,.89,.02,.28,.02,.4,.17,.41,.45,0,.15,0,.31,0,.46,0,.28-.17,.46-.45,.47-.28,.01-.56,0-.85,0-.09,0-.12-.03-.12-.12,0-.2,0-.4,0-.59Z"/>
    </g>
  </g>
</svg>